<svg version="1" xmlns="http://www.w3.org/2000/svg" width="933.333" height="933.333" viewBox="0 0 700.000000 700.000000"><path d="M330 10.6c-1.9.2-8.4.9-14.5 1.4-108.2 10.3-208 76-262.1 172.6-22.6 40.6-35.8 81.9-41.6 130.9-2.1 18.1-1.6 58.8 1 78.2C18.1 433 27.7 465 44.5 499.5c18.1 37.2 39.2 66.3 68.7 95.1 51.8 50.5 116.1 82.3 189.3 93.5 17.8 2.7 60.2 3.7 79.1 2 59.7-5.6 115.9-26.2 164.4-60.3 52-36.4 91.8-85.3 118-144.8 10.2-23.2 19.6-56.7 24-85.5 2.8-17.8 3.8-60.1 2.1-79.3-7.6-81.4-43.1-155.9-101.1-212.5-54.3-53-119.5-84.8-194.5-94.8C380.3 11 339 9.5 330 10.6zm-14.9 58.1C317.7 71.3 313 80 309 80c-2.3 0-2.6-2.5-1-7.9 1.3-4.8 4.3-6.2 7.1-3.4zm-19 4c.1 1 .1 2.1 0 2.5-.1.8 3.5 4.8 4.4 4.8.2 0 .2-1.3-.1-2.9-.4-2.1-.2-3 1.1-3.5 2.3-.8 4.7 1.2 4 3.5-.3.9-.1 2 .5 2.4.8.5.9 2 .5 4.4-.4 2-.4 3.3 0 2.9 1.1-1.1 4.5 1 4.5 2.7 0 .8-1 2-2.2 2.6-1.9 1-2.5.8-4.3-1.5-1.1-1.4-2.7-2.6-3.4-2.6-1.1 0-1 .5.4 2 2.2 2.4 1.4 4.7-2.1 6-1.4.6-2.8 1.9-3.1 3-.3 1.1-1.3 2-2.2 2-.9 0-2.5.7-3.5 1.5-2.6 1.9-5.2 1.9-6-.1-1.1-2.8-2.5-.4-1.9 3.2.4 2.7.1 4.2-1.6 6.4-1.1 1.6-2.1 3.1-2.1 3.4 0 1.4 6.3-2 7.7-4 2.2-3.4 5.4-3 10.8 1.5 2.6 2.2 5.9 4.2 7.3 4.6 1.4.3 4.2 1.4 6.1 2.2 2 .9 5 1.7 6.8 1.8 5.2.3 12.5 7.2 14.6 13.7.9 3 2.2 6.1 2.9 7.1.9 1.1 10.2 4.1 27.3 8.6 38.1 10.2 47.4 13.2 55.1 17.9 7.7 4.6 13 6.1 25.4 7.3 8.9.8 12.8 1.5 24.8 4.8 12.1 3.2 15.8 7 12.8 12.9-.9 1.7-1.6 3.3-1.6 3.5 0 .3 2.1.7 4.6 1 5.7.6 16.8 6.1 18.4 9.2.7 1.3 1 3.1.6 4.1-.3.9-.1 3.2.6 5 .8 2.4.9 4 .1 5.6-.6 1.4-.7 3.2-.1 4.7.7 1.9.3 3.2-1.7 6.1-1.4 2-2.5 4.8-2.5 6.3 0 2.3.4 2.7 2.9 2.7 1.6 0 3.4-.7 4.1-1.6 1.7-1.9 6-1.4 7.4.9.9 1.3.5 3.5-1.6 9.5-1.6 4.3-2.8 8.3-2.8 9 0 2.1 4.3 7.4 6.9 8.3 2.3.9 2.3 1.3 1.7 7.2-.7 7.3-2 8.7-9.7 11-5.4 1.7-5.7 1.9-6.2 5.6-.3 2.3-2.2 6.5-4.7 10.1-5.7 8.4-7.7 14.3-5.9 17.7 1.2 2.2 1.1 2.7-.6 3.9-1.7 1.3-1.8 1.6-.5 2.4 2.3 1.4 2.4 1.3 4.9-3.1 1.6-2.8 3.7-4.7 6.5-6 3.5-1.5 4.4-2.6 5.9-6.7 3-8.7 7.6-14.4 13-16.3 7.2-2.6 9-4.2 10.9-9.6 1-2.7 3-6.7 4.4-8.9 1.5-2.1 3.3-6 4-8.5 1.2-3.8 2.1-5.1 5.1-6.6 2.7-1.3 4.1-2.9 5.3-6.3 2.4-6.1 5.6-8.4 10.1-7.2 3.2.8 3.4 1.1 3.3 5.2-.1 2.9-.7 4.7-1.9 5.7-1.3.9-2 2.8-2.1 5.9-.2 2.5-1.1 5.8-2.1 7.3s-3.3 5-5 7.6c-1.8 2.7-3.3 6.2-3.3 7.8 0 3.3-1.2 5.8-5.2 10.9-1.6 2-3.9 6.8-5.2 10.5-1.3 3.7-3.8 9.9-5.6 13.6-1.8 3.8-4.1 11.3-5.3 17.1-1.8 9.5-1.9 11.1-.7 18.2s1.8 8.3 5.5 12.1c3.8 3.8 5.9 8.6 23.3 52.1 12.8 32 19.2 49.2 19.2 51.7 0 7-9 12.4-16 9.5-4.2-1.7-4.8-2.8-10-15.8l-4.6-11.7h-41.9l.2 8.5c.1 4.7.7 10.4 1.4 12.6.8 3.1.8 4.7-.1 6.3-.9 1.8-.7 2.6.9 4.8 1.4 1.7 2.1 4 2.1 7.2 0 4.4 1.4 8.1 5.2 13.3 1.5 2.1 1.6 2.9.2 9.3-.8 3.8-1.4 10.7-1.3 15.3.1 4.5-.2 8.6-.5 9-1 1-190 1.4-205.6.5-12-.8-12.5-.9-13.5-3.2-4.4-10.7-4.1-10.6-19.8-15.2-10-2.9-13.1-6.3-14.1-14.8-.4-3.1-1.5-7-2.5-8.7-1.3-2.1-2-6.1-2.6-13.6-.6-9.6-.5-11 1.5-15.6 1.2-2.8 2.8-5.7 3.6-6.3 2.5-2.1 1.6-5.6-2.2-8.5-1.9-1.5-4.2-4.1-5.1-5.7-1.7-3.3-4.5-27.8-4.3-37 .1-5-.4-6.8-3.5-12.5-4.8-8.8-8.4-13.4-10-13-2.4.5-25.5 22.9-25.5 24.7 0 .9 7.4 12.2 16.5 25.1 18.9 27 22 32.4 21.1 37.3-.9 4.6-4.3 7.6-9.7 8.3-8.3 1.1-10.8-.8-20.4-15.5-4.7-7.2-12.4-19-17.1-26.3l-8.5-13.1-9 8.9-8.9 8.9-.1 13c0 15.1-1.1 19-5.8 22.2-6 4-13.5 2.2-16.7-3.9-1.5-2.9-1.7-8.5-1.6-53.4.1-53.8.1-54.7 5.1-57.4 3.2-1.6 10.3-1.2 13.8 1 4.6 2.8 5.3 6.7 5.3 29.2 0 10.9.2 19.8.5 19.8.4 0 7.7-7.4 32.8-33.6l7.9-8.2-5.5-5.4c-4.2-4.1-6-6.9-8.1-12.5-3.1-8.1-4.5-9.4-16.4-14.4-7.7-3.2-11.1-6.1-11.9-10.1-.4-2.3-1.3-3-4.7-3.8-11.6-3-13.1-3.9-22-12.8-8.5-8.4-8.8-8.8-8.1-12.2.4-1.9.8-5.1.9-7 .1-1.9.8-5.4 1.4-7.8 1.1-3.6 1-5.2-.4-10.2-1.6-5.8-1.6-6.1.2-8.1 1.5-1.7 1.9-3.7 1.9-10.2 0-7.8.2-8.5 4.3-15.1 2.3-3.9 4.2-7.5 4.2-8.2 0-1.7-3.8-8.3-6.3-11.2-1.2-1.2-3.2-2.2-4.7-2.2-3.9 0-5-1.8-5-8.2 0-6.3 1.4-10.1 5-13.3 1.3-1.1 3.3-4.3 4.6-7.2 2.6-5.7 6.2-9.5 11.4-11.9 1.9-.9 4.3-2.5 5.3-3.5 1-1.1 2.6-1.9 3.6-1.9s2.6-.9 3.6-2 2.8-2 4.1-2c1.2 0 3.1-1.1 4.2-2.4 1.7-2.2 2-5 2.6-26.8.4-13.4 1.1-26.6 1.4-29.3.7-4.8.9-5 4.2-5.5 2.7-.4 4.1-1.4 6.3-4.8 3-4.5 6.4-5.5 8.8-2.6 4.1 4.9 10.7 5.5 21.2 1.9 3.9-1.4 11-3.5 15.7-4.6 5.7-1.3 10.4-3.3 14.8-6 5.1-3.3 7.1-4 9.6-3.5 3.3.6 5.5-.4 10.3-4.5 2.3-1.9 3-3.2 2.6-5-.6-3.4 3.8-5.7 6.2-3.3.8.9 1.5 1.9 1.5 2.4 0 .4.8.6 1.9.3 1-.2 2.5.2 3.3 1.1 2.3 2.3 4.1 0 2.2-2.9-2-3-.8-5.8 2.2-5.2 1.3.2 2.4 0 2.4-.4 0-.5 1.1-.9 2.5-.9 1.7 0 2.5.6 2.6 1.7zm278.2 161.8c.8 2-4.1 10.5-6.9 11.7-1.8.8-2.9.7-4.7-.5-2.1-1.3-2.3-2.1-1.8-5.3.6-3.4 1.1-4 5.1-5.5 5.7-2.2 7.6-2.3 8.3-.4zm-37.1 24.9c1.1 1.6 1 5.4-.2 6.1-1.8 1.1-6-2.4-6-4.9 0-3.5 4.1-4.2 6.2-1.2z"/><path d="M275.7 86.6c-2.2.7-5.4 2.7-7.3 4.4-2.8 2.4-4.4 3-8 3-4.6 0-9.3 1.8-12.9 5-1.1 1-5.6 2.6-10 3.5-4.4 1-10.7 2.8-14 4.2-7 2.8-19 4.9-22.8 3.9-1.5-.3-3.8-1.9-5.2-3.4l-2.5-2.7v2.7c0 2.2-.9 3.1-5.3 5.2l-5.4 2.5-.7 9.3c-.3 5.1-.9 17.8-1.3 28.2l-.6 18.9-2.9 3.3c-1.7 1.9-5.5 4.3-9.6 5.9-3.7 1.5-6.9 3-7.2 3.4-.3.3-2.4 1.5-4.8 2.6-4.8 2.1-7.5 5.3-9.7 11.6-.9 2.4-3.1 5.7-4.9 7.4-5.9 5.4-5.9 13.5.1 13.5 2.7 0 7.3 4.1 7.3 6.4 0 .8 1.1 3.2 2.5 5.2s2.5 4.4 2.5 5.2c0 .8-2 5.2-4.5 9.8-4.2 7.7-4.5 8.7-4.5 16.1-.1 5-.6 8.4-1.4 9.6-1.1 1.3-1.1 2.8-.4 6 1.1 4.7.4 16.3-1.3 22.9l-1.2 4.4 7 7.1c7.8 7.9 10.3 9.5 18.3 11.3 6.7 1.5 7.5 2.2 9.9 7.5 1.7 3.8 2.5 4.4 9.9 7.4 9.6 3.9 15.6 8.7 17.3 13.9 2.3 7.1 5.7 12.7 9.7 15.9 3.5 2.9 4.2 3.1 5.3 1.7 4.1-4.9 13-5.9 17.7-1.9 3.8 3.2 4.8 7.2 2.8 11.9l-1.5 3.6 4.7 6.3c8.2 10.7 9.4 14.8 10.3 33.2.5 8.8 1.2 18.1 1.7 20.7 1 5.3 3.5 8.8 6.4 8.8 1.4 0 1.8-.8 1.8-3.6 0-7.5 9.6-12.2 15.8-7.8 1.3.9 3.9 4.8 5.8 8.7 1.9 3.9 4.4 8.2 5.7 9.5 8.3 9.1 28.2 8.3 36.7-1.5 5.8-6.6 3.2-17.1-5.3-21.2-2.3-1.1-10.5-3.6-18.2-5.6-24.1-6.3-33.6-12.4-37-23.9-7.1-23.8 10-41.6 39.7-41.6 23 0 36.4 7.2 41.3 22.1 2 5.9 1.4 9.3-2.2 13.1-5.7 6-12.2 4.2-17.3-4.8-4.9-8.5-9-12-15.2-13.3-5.9-1.3-13.7-.3-18.7 2.4-6.8 3.5-9.1 10.7-5 15.9 3.1 3.9 8 6 23.5 10.2 31.4 8.3 40.6 16.5 40.8 35.9.1 9.1-2.5 16.2-8.4 22.8-8.9 10.2-27.3 15.3-45.9 12.7-14.4-2-23.5-6.5-29.3-14.7-1.7-2.4-3.4-4.3-3.7-4.2-.3 0-2.1 2.2-3.8 4.9-3.1 4.7-3.3 5.5-3.3 13.9 0 7 .5 10.2 2.5 15.5 1.4 3.7 2.5 8.4 2.5 10.6 0 6.4 5.9 10.3 20.8 13.5 4.7 1 9 5 10.2 9.6.6 2.2 2 4.4 3.3 5.1 2.7 1.5 153.1 2.3 188.1 1.1l21.8-.8.2-6.5c.1-3.6.6-9.6 1.1-13.3.7-6.2.6-7.1-1.4-9.7-1.2-1.7-2.6-5.4-3.1-8.2-.6-2.9-1.7-7.3-2.4-9.8-1.2-3.7-2.8-20.2-2.8-28.7 0-3.9-1.4-1.6-4.8 7.7-1.8 5-4.1 10.1-5.1 11.4-2.3 2.9-6.5 3.8-11.2 2.5-6.7-1.8-9.2-8-6.6-16 3.9-11.7 35.5-91.1 37.6-94.2 2.6-4.1 7.4-6.7 12.3-6.7 2.7 0 3.5-.9 3.1-3.3-2.7-15.6-.8-27.2 7.5-46.3 2.4-5.6 4.4-10.6 4.4-11.2 0-.5-1.5-2.5-3.3-4.5-2.7-3-3.5-3.4-5.2-2.4-1.1.6-2.5 1.7-3.1 2.5-.7.9-2 1.3-3.3.9-1.7-.4-2.7.2-4.6 3.1-1.3 2-3.1 5.7-4 8.1-1.9 5.6-3 6.9-7.1 8.6-1.9.8-4.4 3.1-5.8 5.4-3.5 5.5-5.7 6.5-10.1 4.7-1.9-.8-3.8-2.2-4.2-3.1-.3-.9.1-5.2 1-9.6 1.2-6 2.7-9.8 6.6-16.3 2.8-4.6 5.4-9.9 5.7-11.7.8-4.1 3.1-6.9 5.5-6.9 1 0 3.7-.7 5.9-1.6 3.4-1.4 4-2.1 4-4.6 0-1.8-1.4-4.8-3.9-8.1-5.4-7.2-5.6-8.4-2.6-16.2 3.1-8.3 3.1-8.9.1-7-1.6 1.1-4.1 1.5-7.2 1.3-5.7-.4-7.5-2.4-5.5-6.1.7-1.4 1-3 .6-3.7-.4-.6.5-2.9 2-5 2.7-3.8 2.7-4.1 1-6.6-1.9-2.9-1.4-5.4 1.1-5.4 1.5 0 1.5-.2-.1-2.6-.9-1.4-1.5-3.7-1.2-5 .3-1.8-.3-2.9-2.2-4.4-3.3-2.3-9.4-4.6-14.2-5.4-2-.4-4.4-1.5-5.4-2.6-1.6-1.8-1.7-2.4-.5-6 1.1-3.5 1.1-4.3-.1-5.4-.8-.7-7.8-3-15.7-5.1-10.6-2.8-14.6-3.5-15.5-2.6-1.2 1.2-6 1.5-7.1.4-.4-.4-3.4-1.3-6.7-2-3.7-.7-8.5-2.7-12.3-5.2-3.5-2.2-8.1-4.7-10.2-5.6-3.5-1.4-39.2-11.4-62.9-17.6-10.5-2.7-13.8-5.3-15.7-12.4-1.7-6.2-4.3-8.8-10.9-11-3-1-8.2-3-11.7-4.6-3.5-1.6-6.6-2.9-7-2.9-.3 0-2.3-1.2-4.4-2.6-3.5-2.4-4-2.5-5.6-1.2-2.6 2.3-11.8 6-13.9 5.6-2.6-.5-2.1-6 1-10.6 1.9-2.8 2.4-4.5 2-7-.4-2.7.1-4.1 2.6-7.2 4.1-5.2 5-9.4 2.3-10.9-2.5-1.3-2.7-1.3-7.5.5zm176.6 280.6c3.2 1.7 4.6 3.9 4.7 7.5.1 8.9-1.4 9.3-33.7 9.3-14.7 0-27.4.4-28.1.8-.9.7-1.2 4.1-1 13.8l.3 12.9 26 .2c16.7.2 26.8.7 28.1 1.4 4.7 2.4 5.4 10.8 1.2 14.6-1.8 1.6-4.7 1.9-28.7 2.3l-26.6.5-.3 15.7-.3 15.7 30.2.3 30.1.3 2.4 2.8c3.2 3.7 3.2 8.7 0 12.4l-2.4 2.8-35.9.3c-38.4.4-41.7 0-45.2-4.5-2.1-2.5-2.1-3.6-2.1-52.7 0-55.4-.2-53.3 6.4-56.2 4.2-1.8 71.6-2 74.9-.2zM551.6 261.9c-1.9 2.7-3.6 4.1-5.1 4.1-1.8 0-2.4.7-2.9 3.9-.3 2.2-1.7 5.3-3.1 6.9-5.4 6.5-7.4 17.1-3.6 19.1 1.6.9 2.3.4 4.5-2.8 1.5-2.1 3-6 3.5-8.7.4-2.7 2.4-7.6 4.4-10.9 2.6-4.3 3.5-6.6 3-8.4-.4-1.7-.1-2.8 1.2-3.7.9-.7 1.5-1.8 1.3-2.4-.2-.7-1.7.6-3.2 2.9z"/><path d="M517.7 399.2c-1.6 4.8-2.7 10.5-2.7 13.4 0 3.9-.8 6.7-3 10.9-1.6 3.1-3 7.2-3 9.1v3.4h13.8c7.6 0 14.1-.2 14.4-.5.6-.6-15.4-44.5-16.2-44.5-.3 0-1.8 3.7-3.3 8.2z"/></svg>