<?xml version="1.0" encoding="utf-8"?>
<!-- Generator: Adobe Illustrator 23.0.3, SVG Export Plug-In . SVG Version: 6.00 Build 0)  -->
<svg version="1.1" baseProfile="tiny" id="KSEA_Chapter_Logo_xA0_Image_1_"
	 xmlns="http://www.w3.org/2000/svg" xmlns:xlink="http://www.w3.org/1999/xlink" x="0px" y="0px" viewBox="0 0 316.56 316.56"
	 xml:space="preserve">
<g>
	<path fill="#02ACEC" d="M316.92,166.68c-0.58,2.16-0.45,4.39-0.66,6.59c-3.17,32.9-15.38,62.03-36.58,87.36
		c-12.98,15.5-28.45,28.01-46.27,37.56c-18.79,10.07-38.8,16.12-60.04,18.04c-3.18,0.29-6.38,0.46-9.57,0.69c-3.44,0-6.88,0-10.32,0
		c-9.68-0.46-19.28-1.49-28.74-3.62c-33.48-7.54-61.72-24.08-84.53-49.69c-19.65-22.07-32.38-47.7-37.29-76.84
		c-8.1-48.1,3.07-91.49,34.11-129.23c23.42-28.48,53.55-46.7,89.77-53.79c48.55-9.51,92.67,1.1,131.38,32.02
		c28.38,22.67,46.44,52.16,54.78,87.55c2.05,8.69,3.23,17.52,3.73,26.43c0.02,0.29-0.15,0.66,0.24,0.85
		C316.92,155.96,316.92,161.32,316.92,166.68z M4.68,158.61c-0.04,85,68.82,153.9,153.9,153.99
		c84.87,0.09,153.92-68.79,154.02-153.63C312.7,73.72,243.81,4.68,158.64,4.68C73.61,4.68,4.72,73.56,4.68,158.61z"/>
	<path d="M4.68,158.61C4.72,73.56,73.61,4.68,158.64,4.68c85.17,0,154.06,69.04,153.96,154.29
		c-0.1,84.84-69.15,153.72-154.02,153.63C73.5,312.51,4.64,243.61,4.68,158.61z M126.01,36.31c-0.05-0.07-0.1-0.14-0.15-0.21
		c0.13-0.78-0.14-1.52-0.81-1.81c-0.76-0.33-1.49,0.21-2.15,0.61c-0.5,0.3-0.58,0.96-0.33,1.26c0.97,1.17,0.03,1.47-0.74,1.87
		c-0.44,0.23-0.67,0.64-1.01,0.95c-1.09,1-2.4,2.22-3.85,1.58c-1.39-0.61-2.04-0.01-3.01,0.59c-1.37,0.84-2.68,1.89-4.11,2.51
		c-1.91,0.83-4.08,1.04-6.14,1.52c-3.06,0.71-5.78,2.44-8.98,2.83c-2.06,0.25-3.79-0.15-5.2-1.59c-1.63-1.66-2.95-1.64-4.06,0.22
		c-0.32,0.53-0.54,1.14-0.95,1.6c-0.64,0.72-1.13,1.67-2.51,1.13c-0.94-0.37-1.43,0.55-1.49,1.37c-0.28,4.22-0.56,8.44-0.72,12.66
		c-0.16,4.1-0.17,8.2-0.26,12.3c-0.02,1.18-1.79,2.74-2.95,2.66c-0.69-0.05-1.26,0-1.66,0.78c-0.27,0.52-0.59,1.17-1.59,0.98
		c-0.65-0.12-1.56,0.24-1.93,1.05c-0.24,0.52-0.64,0.63-1.14,0.83c-1.99,0.79-3.79,1.81-5.13,3.66c-1.27,1.76-1.03,4.11-3.22,5.64
		c-2.31,1.61-2.5,4.7-2.28,7.52c0.06,0.81,0.43,1.79,1.25,1.74c3.15-0.18,4.11,2.07,5.18,4.29c0.13,0.28,0.31,0.56,0.54,0.75
		c0.71,0.62,0.61,1.33,0.22,2.02c-0.69,1.25-1.32,2.55-2.19,3.67c-1.72,2.24-1.79,4.7-1.46,7.33c0.14,1.12,0.35,2.32-0.81,3.27
		c-0.68,0.56-1.07,1.43-0.61,2.51c1.01,2.4,1.61,4.86,0.1,7.33c-0.22,0.35-0.57,0.87-0.24,1.2c1.16,1.18,0.15,2.22-0.2,3.22
		c-0.49,1.39-0.61,2.51,0.64,3.59c1.5,1.29,3.15,2.53,4.27,4.12c1.31,1.84,3.07,2.76,5.03,3.44c1.48,0.52,3.06,0.74,4.58,1.16
		c0.44,0.12,0.89,0.28,1,0.98c0.29,1.86,1.21,3.38,3.03,4.09c2.87,1.12,5.81,2.07,8.21,4.12c0.67,0.57,0.97,1.24,1.26,2.08
		c0.63,1.83,1.2,3.72,2.32,5.35c0.94,1.38,2.31,2.32,3.58,3.35c0.57,0.47,0.86,0.77,0.11,1.49c-2.17,2.1-4.23,4.33-6.32,6.51
		c-3.72,3.87-7.43,7.75-11.15,11.62c-0.21,0.22-0.46,0.41-0.69,0.61c-0.05-0.33-0.14-0.67-0.14-1c-0.01-5.52,0.05-11.04-0.04-16.56
		c-0.03-2.11-0.28-4.36-2.53-5.4c-4.63-2.13-8.21,0.14-8.19,5.26c0.06,14.22-0.34,28.44,0.2,42.66c0.08,2.04,1.56,4,3.5,4.54
		c2.22,0.62,4.66-0.24,5.86-1.89c0.92-1.28,1.12-2.73,1.16-4.18c0.08-3.24,0.05-6.48,0.01-9.72c-0.01-0.79,0.23-1.33,0.79-1.86
		c2.35-2.22,4.66-4.47,6.98-6.72c0.37-0.35,0.49-0.66,0.97,0.08c4.57,7.16,9.21,14.27,13.84,21.38c2.15,3.3,4.79,3.41,8.24,2.62
		c1.09-0.25,1.92-1.21,2.31-2.37c0.89-2.63-0.28-4.86-1.66-6.87c-4.61-6.75-9.34-13.42-14.06-20.1c-1.64-2.32-1.68-2.29,0.32-4.23
		c0.72-0.69,1.4-1.43,2.13-2.12c2.55-2.4,5.12-4.78,7.65-7.2c0.41-0.39,0.56-0.26,0.92,0.04c2.18,1.79,3.26,4.35,4.67,6.67
		c1.06,1.74,1.65,3.57,1.04,5.68c-0.23,0.81-0.25,1.82,0.01,2.61c1.31,3.96,0.12,8.19,1.51,12.19c0.54,1.56,0.96,2.75,2.46,3.48
		c2.43,1.18,2.75,2.27,1.13,4.44c-1.72,2.29-2.58,4.72-2.31,7.63c0.18,1.96,0.81,3.93,0.29,5.93c-0.1,0.39,0.21,0.62,0.39,0.93
		c0.84,1.42,1.79,2.8,1.79,4.58c0,1.01-0.02,2.12,0.38,3.01c0.81,1.78,2.03,3.21,4.15,3.67c1.37,0.3,2.63,1.04,3.99,1.37
		c1.6,0.39,3.47,0.24,4.6,1.61c1.03,1.25,1.57,2.91,2.09,4.4c0.41,1.16,0.91,1.4,1.8,1.44c2.94,0.13,5.88,0.01,8.82,0.2
		c4.93,0.32,9.88,0.2,14.82,0.21c18.94,0.04,37.88,0.36,56.82-0.14c5.18-0.14,10.36,0.01,15.54-0.22c1.65-0.07,1.96-0.61,1.52-2.08
		c-0.25-0.81-0.3-1.7-0.31-2.56c-0.02-3.1,0.77-6.09,1.35-9.11c0.12-0.63,0.02-1.16-0.39-1.48c-2.1-1.65-2.58-3.86-2.42-6.35
		c0.08-1.22-0.2-2.31-1.24-3.13c-0.75-0.59-0.88-1.3-0.2-2.12c0.42-0.51,0.78-1.31,0.42-1.84c-0.83-1.22-1-2.45-0.67-3.84
		c0.06-0.23-0.12-0.52-0.2-0.77c-0.45-1.4-0.73-2.86-0.45-4.29c0.13-0.65-0.49-1.95,1.1-1.94c5.72,0.03,11.44,0.03,17.16-0.01
		c0.74,0,1.09,0.3,1.32,0.91c1.07,2.8,2.16,5.6,3.2,8.42c1.64,4.44,5.77,4.37,8.08,2.8c2.2-1.5,2.74-3.59,1.52-6.77
		c-2.32-6.07-4.82-12.07-7.23-18.1c-2.58-6.46-5.1-12.95-7.75-19.38c-1-2.43-1.64-5.23-4.06-6.7c-1.51-0.91-1.53-1.99-1.77-3.49
		c-0.36-2.18-1.09-4.26-0.61-6.53c0.73-3.5,0.99-7.17,2.66-10.38c1.31-2.5,2.62-5.03,3.18-7.73c0.43-2.07,1.67-3.43,2.89-4.79
		c1.28-1.44,1.73-3.02,1.75-4.76c0.01-0.43-0.1-0.94,0.11-1.28c0.7-1.11,1.37-2.3,2.29-3.21c1.55-1.54,2.08-3.42,2.21-5.45
		c0.05-0.88-0.93-2.05,0.94-2.09c0.17,0,0.42-0.3,0.47-0.51c0.29-1.19,0.55-2.38,0.78-3.59c0.07-0.36-0.21-0.52-0.56-0.63
		c-3.43-1.04-4.86-0.32-5.89,3.1c-0.48,1.59-1,2.91-3,2.98c-0.7,0.03-1.06,0.76-1.36,1.45c-0.55,1.28-0.3,2.84-1.27,3.92
		c-1.28,1.43-1.8,3.23-2.7,4.84c-0.66,1.18-0.32,2.88-2.3,3.51c-0.88,0.28-1.8,1.21-2.88,1.28c-0.95,0.06-1.69,0.3-2.26,1.03
		c-1.6,2.05-3.01,4.19-3.71,6.74c-0.28,1.02-0.62,2.09-1.91,2.34c-1.72,0.33-2.74,1.49-3.52,2.95c-0.26,0.48-0.54,0.94-0.79,1.41
		c-0.22,0.41-0.5,0.61-0.95,0.33c-0.4-0.25-1.1-0.05-1.2-0.71c-0.09-0.63,0.58-0.38,0.86-0.57c0.93-0.62,0.85-1.44,0.15-1.89
		c-0.67-0.43-0.64-0.95-0.51-1.4c0.34-1.17,0.79-2.32,1.27-3.45c1.3-3.05,4.44-5.15,4.32-8.98c-0.04-1.25,1.67-0.9,2.53-1.37
		c1.53-0.84,3.97-0.35,4.32-2.91c0.13-0.93,0.08-1.9,0.27-2.81c0.29-1.37,0.61-2.6-1.51-2.48c-0.2,0.01-0.52-0.3-0.6-0.52
		c-0.29-0.87-0.96-1.43-1.59-2.02c-0.65-0.61-0.54-1.33-0.27-1.97c0.82-1.98,1.31-4.07,2.21-6.02c0.47-1.01-0.31-1.97-1.18-2.47
		c-0.74-0.43-1.53-0.23-2.22,0.49c-0.84,0.9-2.02,1.09-3.22,1.03c-0.21-0.01-0.68-0.07-0.49-0.27c1.02-1.08-0.32-2.82,1.21-3.79
		c1.48-0.94,1.37-2.4,0.79-3.87c-0.08-0.21-0.48-0.35-0.1-0.73c1.11-1.11,0.9-2.34,0.23-3.61c-0.15-0.28-0.63-0.38-0.43-0.88
		c0.74-1.88,0.33-3.22-1.47-4.2c-2.51-1.36-4.95-2.96-8.01-2.85c-0.54,0.02-1.53-0.05-0.57-1.2c1.55-1.85,0.86-4.12-1.36-5.25
		c-2.53-1.28-5.6-0.93-8-2.62c-0.11-0.08-0.35-0.07-0.47,0c-1,0.57-2.07,0.11-2.75-0.34c-1.09-0.72-2.26-0.88-3.27-0.57
		c-1.55,0.48-2.81,0.24-4.33-0.22c-2.34-0.7-4.91-0.76-6.91-2.32c-2.12-1.65-4.51-2.77-7.01-3.49c-9.89-2.82-19.81-5.55-29.77-8.13
		c-1.76-0.46-1.94-1.85-2.36-2.87c-0.76-1.85-0.91-4.37-2.69-5.17c-1.67-0.75-2.78-3.25-5.2-2.13c-0.08,0.04-0.25-0.02-0.33-0.08
		c-1.34-1.02-2.95-1.39-4.51-1.91c-1.55-0.51-2.88-1.4-3.94-2.68c-1.18-1.43-3.53-1.9-3.97-0.7c-0.56,1.5-1.55,1.97-2.88,2.25
		c-0.35,0.07-0.68,0.22-1.01,0.33c-0.16-0.49,0.07-0.82,0.41-1.15c0.22-0.21,0.32-0.55,0.54-0.74c1.12-0.98,1.22-2.14,0.61-3.4
		c-0.5-1.03,0.29-1.59,0.86-2.04c0.19-0.14,0.02,0.75,0.18,1.13c0.44,1.01,1.19,1,2.01,0.55c0.7-0.39,1.24-1.16,2.11-1.14
		c0.83,0.02,1.16-0.54,1.11-1.07c-0.07-0.79,0.41-0.94,0.9-1.08c0.88-0.25,1.93-0.47,1.97-1.49c0.03-0.89-0.5-1.79-1.51-2.15
		c-0.09-0.03-0.16-0.1-0.24-0.15c0.11-0.05,0.22-0.09,0.32-0.14c0.68-0.34,2.2,0.39,2.21,1.1c0.01,0.95,0.68,1.18,1.33,1.08
		c0.78-0.12,1.69-0.46,1.53-1.52c-0.12-0.77-0.72-1.16-1.57-1.1c-0.26,0.02-0.57,0.61-0.76,0.05c-0.11-0.33-0.18-0.78,0.2-1.11
		c0.26-0.23,0.48-0.47,0.5-0.89c0.07-1.28-0.92-1.8-2.61-1.32c-0.43,0.12-1.05,0.78-1.07-0.39c0-0.19-0.44-0.47-0.71-0.52
		c-0.6-0.12-0.63-0.27-0.49-0.89c0.18-0.78,0-1.76-0.92-2.05c-0.75-0.24-1.34,0.08-1.46,1.06c-0.07,0.63-0.39,0.02-0.46-0.06
		c-0.44-0.53-0.91-0.75-1.52-0.3c-0.73,0.54-0.46,1.36-0.31,1.97c0.14,0.55,0.69,1.1,1.47,0.85c0.2-0.06,0.45-0.38,0.57-0.02
		c0.12,0.36-0.26,0.31-0.47,0.3c-0.65-0.03-1.04,0.23-1.18,0.89c-0.18,0.86-0.61,0.43-0.82,0.07
		C128.12,35.5,127.11,35.71,126.01,36.31z M77.47,265.81c-0.02,1.69,0.93,2.63,2.28,3.31c1.43,0.72,2.76,0.51,3.85-0.61
		c4.17-4.31,8.19-8.75,11.98-13.4c1.07-1.32,0.6-2.82-0.96-3.51c-1.28-0.56-2.14,0.06-2.93,0.95c-2.74,3.08-5.47,6.16-8.21,9.23
		c-0.2,0.22-0.37,0.64-0.72,0.48c-0.12-0.06-0.07-0.59-0.01-0.89c0.74-3.92,1.49-7.84,2.24-11.76c0.31-1.61,0.11-3.01-1.49-3.93
		c-1.54-0.88-2.87-0.61-4.17,0.51c-3.03,2.6-6.09,5.18-9.15,7.75c-0.25,0.21-0.46,0.67-0.86,0.42c-0.11-0.07,0.02-0.59,0.11-0.88
		c1.29-3.9,2.61-7.8,3.9-11.71c0.32-0.97,0.5-1.96-0.39-2.78c-1.51-1.39-3.2-1.05-3.97,0.94c-2.06,5.37-3.77,10.86-5.46,16.36
		c-0.52,1.68-0.23,3.07,1.27,4.11c1.59,1.1,3.12,1.07,4.61-0.2c3.37-2.89,6.73-5.78,10.1-8.66c0.26-0.22,0.71-0.61,0.84-0.53
		c0.38,0.24,0.02,0.63-0.04,0.95C79.37,256.59,78.42,261.2,77.47,265.81z M245.19,267.99c2.37,0.03,3.58-1.88,2.47-3.9
		c-1.8-3.29-3.66-6.55-5.5-9.83c-0.11-0.19-0.3-0.5-0.24-0.59c0.21-0.29,0.5-0.05,0.75,0.05c1.67,0.67,3.31,1.4,5,2.02
		c3.63,1.35,7.18,2.94,11.02,3.63c1.68,0.3,3.05-0.52,4.02-1.86c0.95-1.31,0.13-2.41-0.62-3.48c-3.07-4.39-6.12-8.78-9.2-13.16
		c-1.12-1.58-2.2-1.85-3.53-0.95c-1.3,0.87-1.43,2.03-0.38,3.63c1.99,3.04,3.99,6.07,5.98,9.12c0.19,0.29,0.52,0.78,0.42,0.92
		c-0.29,0.42-0.73,0.01-1.06-0.1c-5.07-1.69-10.07-3.59-14.94-5.8c-1.37-0.62-2.57-0.4-3.6,0.66c-1.05,1.07-1,2.26-0.33,3.52
		c2.58,4.92,5.15,9.84,7.73,14.75C243.62,267.45,244.23,268.05,245.19,267.99z M180.1,268.53c0.65,5.46,1.3,10.93,1.94,16.39
		c0.25,2.11,1.14,2.95,2.95,2.69c1.68-0.25,2.33-1.38,2.03-3.4c-0.54-3.51-1.05-7.02-1.56-10.53c-0.04-0.25,0.03-0.52,0.05-0.79
		c0.22,0.14,0.47,0.26,0.66,0.44c2.45,2.29,4.86,4.62,7.35,6.88c1.48,1.34,3,2.64,4.6,3.83c1.45,1.07,3.09,0.99,4.65,0.15
		c0.96-0.52,1.3-1.44,1.05-2.46c-1.39-5.74-2.8-11.47-4.25-17.19c-0.34-1.32-1.2-2.06-2.68-1.69c-1.49,0.38-1.97,1.36-1.67,2.8
		c0.78,3.67,1.56,7.33,2.33,11c0.07,0.34,0.17,0.92,0.02,1.01c-0.43,0.26-0.67-0.26-0.95-0.5c-4.01-3.38-7.8-6.98-11.44-10.74
		c-0.96-0.99-2.07-1.32-3.37-0.77C180.54,266.19,180,267.17,180.1,268.53z M164.53,289.04c0.6,0,1.2,0.06,1.8-0.01
		c4.33-0.49,8.06-2.04,9.72-6.43c3.35-8.83-3.77-17.07-13.27-15.79c-8.34,1.12-11.32,7.94-9.99,14.52
		C153.77,286.18,158.22,289.1,164.53,289.04z M115.77,282.62c1.01-0.19,2.14-0.29,3.2-0.62c4.34-1.37,5.5-6.41,2.18-9.52
		c-0.84-0.78-1.84-1.4-2.8-2.04c-2.03-1.34-4.39-2.14-6.2-3.82c-0.6-0.56-1.09-1.21-0.84-2.11c0.26-0.92,1-1.29,1.85-1.5
		c2.68-0.67,5.72,1.07,6.51,3.71c0.15,0.49,0.31,1,0.57,1.44c0.57,0.96,1.52,1.15,2.51,0.91c0.94-0.22,1.46-0.87,1.51-1.91
		c0.07-1.47-0.49-2.68-1.48-3.67c-3.02-3.04-6.84-4.2-10.94-3.81c-4.74,0.45-6.87,4.8-4.34,8.33c1.14,1.59,2.84,2.54,4.49,3.54
		c1.63,0.99,3.48,1.64,4.87,3.02c1.57,1.56,1.13,3.48-0.93,4.23c-2.26,0.82-6.09-0.33-7.5-2.27c-0.74-1.02-0.7-2.27-1.03-3.41
		c-0.43-1.48-1.54-2.01-2.96-1.81c-1.46,0.21-1.8,1.37-1.72,2.6c0.08,1.24,0.48,2.43,1.27,3.43
		C106.95,281.17,111.24,282,115.77,282.62z M218.31,270.3c1.55,0.01,2.91-0.07,3.67,1.37c0.57,1.07,0.22,2.02-0.44,2.89
		c-2.26,3-6.86,3.36-9.49,0.76c-0.28-0.28-0.56-0.59-0.9-0.78c-1.19-0.7-2.34-0.5-3.28,0.45c-0.93,0.94-0.65,1.98,0.09,2.92
		c0.89,1.13,2.03,1.9,3.43,2.3c4.38,1.23,11.57-1.07,14.41-4.62c2.35-2.94,1.82-6.96-1.14-8.64c-1.79-1.02-3.75-0.99-5.71-0.81
		c-2.26,0.2-4.52,0.47-6.79,0.58c-1.03,0.05-2.15-0.15-2.54-1.37c-0.41-1.24,0.35-2.07,1.22-2.76c2.28-1.81,4.7-1.84,7.02-0.15
		c0.35,0.26,0.72,0.51,1.11,0.7c1,0.48,1.9,0.2,2.61-0.56c0.71-0.76,0.73-1.65,0.18-2.54c-0.83-1.32-2.12-1.93-3.58-2.17
		c-4.09-0.65-7.66,0.72-10.81,3.17c-2.21,1.72-2.86,4.1-2.08,6.28c0.8,2.23,2.7,3.37,5.61,3.51
		C213.46,270.96,215.98,270.46,218.31,270.3z M138.55,284.09c-4.25-0.03-6.9-2.48-6.86-6.45c0.02-1.85,0.39-3.66,1.25-5.32
		c1.19-2.28,2.94-3.71,5.68-3.72c2.78-0.01,4.73,1.19,5.91,3.69c0.22,0.47,0.47,0.93,0.76,1.35c0.68,1.01,1.71,1.01,2.69,0.7
		c0.95-0.3,1.3-1.1,1.19-2.1c-0.11-0.99-0.5-1.86-1.11-2.61c-3.1-3.81-7.23-4.96-11.89-4.29c-4.5,0.64-7.44,3.34-8.82,7.62
		c-1.37,4.25-1,8.23,2.43,11.48c3.57,3.38,11.48,4.16,15.64,1.55c1.48-0.93,2.66-2.17,3.08-3.97c0.34-1.44-0.37-2.22-1.66-2.55
		c-1.32-0.33-2.2,0.27-2.82,1.44C142.87,283.11,141.03,284.16,138.55,284.09z M235.13,273.04c2.24,0.02,3.61-1.79,2.7-3.74
		c-2.45-5.21-4.96-10.38-7.47-15.55c-0.68-1.41-1.83-1.87-3.28-1.2c-1.44,0.66-1.73,1.88-1.15,3.21c2.31,5.31,4.68,10.6,7.03,15.89
		C233.37,272.58,234.09,273.07,235.13,273.04z M103.78,257.19c-0.17-1.34-0.88-2.11-2.03-2.37c-1.48-0.34-2.34,0.52-2.88,1.77
		c-2.21,5.09-4.4,10.19-6.6,15.29c-0.76,1.77-0.28,3.04,1.36,3.7c1.68,0.67,2.93,0.12,3.63-1.63c2.01-5.05,4.01-10.1,6-15.15
		C103.49,258.23,103.64,257.65,103.78,257.19z M253.56,109.95c-0.12,0.54,0.13,0.9,0.72,1.19c1.74,0.85,3.6,0.01,4.3-2.05
		c0.19-0.57,0.31-1.1,0.87-1.5c0.59-0.43,0.52-1.15,0.14-1.69c-0.47-0.65-1.16-0.59-1.78-0.2c-0.33,0.2-0.56,0.46-1.01,0.52
		C254.05,106.58,253.6,107.13,253.56,109.95z M141.22,30.64c-0.57-0.19-1.08,0.02-1.37,0.56c-0.69,1.29-0.85,2.74-0.95,4.14
		c-0.09,1.26,1.01,0.84,1.64,0.61c1.44-0.52,2.57-3.11,2.09-4.55C142.4,30.74,141.97,30.45,141.22,30.64z M241.52,116.5
		c-0.86-0.05-1.45,0.2-1.4,1.18c0.07,1.29,0.79,2.13,2,2.41c0.76,0.18,1.2-0.37,1.11-1.14C243.09,117.85,243.08,116.61,241.52,116.5
		z M138.13,34.33c0.06-0.74-0.35-1.1-1.2-1.1c-0.75,0-1.23,0.28-1.2,1.08c0.02,0.82,0.5,1.28,1.31,1.32
		C137.84,35.67,138.14,35.19,138.13,34.33z"/>
	<path fill="#FEFEFE" d="M126.01,36.31c1.1-0.6,2.11-0.81,2.88,0.52c0.21,0.36,0.63,0.78,0.82-0.07c0.14-0.65,0.53-0.92,1.18-0.89
		c0.21,0.01,0.59,0.06,0.47-0.3c-0.12-0.36-0.36-0.04-0.57,0.02c-0.79,0.25-1.34-0.3-1.47-0.85c-0.15-0.61-0.43-1.43,0.31-1.97
		c0.61-0.45,1.08-0.23,1.52,0.3c0.07,0.08,0.39,0.69,0.46,0.06c0.11-0.98,0.71-1.3,1.46-1.06c0.92,0.3,1.1,1.27,0.92,2.05
		c-0.14,0.63-0.11,0.78,0.49,0.89c0.27,0.05,0.7,0.34,0.71,0.52c0.02,1.17,0.63,0.51,1.07,0.39c1.69-0.47,2.67,0.04,2.61,1.32
		c-0.02,0.43-0.23,0.67-0.5,0.89c-0.38,0.33-0.31,0.78-0.2,1.11c0.19,0.56,0.5-0.03,0.76-0.05c0.85-0.06,1.45,0.33,1.57,1.1
		c0.17,1.06-0.75,1.4-1.53,1.52c-0.65,0.1-1.33-0.13-1.33-1.08c0-0.71-1.53-1.43-2.21-1.1c-0.1,0.05-0.21,0.1-0.32,0.14
		c0.08,0.05,0.15,0.12,0.24,0.15c1.01,0.36,1.54,1.26,1.51,2.15c-0.03,1.01-1.09,1.24-1.97,1.49c-0.49,0.14-0.97,0.29-0.9,1.08
		c0.05,0.53-0.28,1.09-1.11,1.07c-0.87-0.02-1.41,0.75-2.11,1.14c-0.81,0.44-1.57,0.46-2.01-0.55c-0.17-0.38,0-1.28-0.18-1.13
		c-0.58,0.45-1.36,1.01-0.86,2.04c0.61,1.26,0.52,2.42-0.61,3.4c-0.23,0.2-0.33,0.53-0.54,0.74c-0.34,0.33-0.57,0.66-0.41,1.15
		c0.34-0.11,0.67-0.26,1.01-0.33c1.33-0.28,2.32-0.75,2.88-2.25c0.45-1.2,2.79-0.73,3.97,0.7c1.06,1.28,2.38,2.17,3.94,2.68
		c1.56,0.51,3.17,0.89,4.51,1.91c0.09,0.07,0.25,0.12,0.33,0.08c2.43-1.12,3.54,1.38,5.2,2.13c1.78,0.8,1.94,3.32,2.69,5.17
		c0.42,1.02,0.6,2.41,2.36,2.87c9.96,2.58,19.88,5.31,29.77,8.13c2.51,0.71,4.89,1.83,7.01,3.49c2,1.56,4.58,1.63,6.91,2.32
		c1.52,0.45,2.78,0.7,4.33,0.22c1.01-0.31,2.17-0.15,3.27,0.57c0.68,0.44,1.75,0.9,2.75,0.34c0.12-0.07,0.36-0.08,0.47,0
		c2.4,1.69,5.47,1.33,8,2.62c2.22,1.13,2.91,3.4,1.36,5.25c-0.96,1.15,0.02,1.22,0.57,1.2c3.07-0.11,5.5,1.49,8.01,2.85
		c1.81,0.98,2.22,2.32,1.47,4.2c-0.2,0.5,0.28,0.6,0.43,0.88c0.67,1.27,0.88,2.5-0.23,3.61c-0.38,0.38,0.02,0.52,0.1,0.73
		c0.58,1.48,0.69,2.93-0.79,3.87c-1.53,0.97-0.19,2.71-1.21,3.79c-0.19,0.2,0.28,0.25,0.49,0.27c1.2,0.06,2.37-0.13,3.22-1.03
		c0.68-0.72,1.48-0.92,2.22-0.49c0.87,0.5,1.65,1.46,1.18,2.47c-0.9,1.96-1.4,4.05-2.21,6.02c-0.26,0.63-0.37,1.36,0.27,1.97
		c0.63,0.58,1.3,1.14,1.59,2.02c0.07,0.22,0.4,0.53,0.6,0.52c2.12-0.12,1.8,1.12,1.51,2.48c-0.2,0.91-0.15,1.88-0.27,2.81
		c-0.35,2.56-2.79,2.07-4.32,2.91c-0.86,0.47-2.57,0.11-2.53,1.37c0.12,3.83-3.02,5.94-4.32,8.98c-0.48,1.13-0.93,2.27-1.27,3.45
		c-0.13,0.45-0.15,0.96,0.51,1.4c0.7,0.46,0.79,1.27-0.15,1.89c-0.29,0.19-0.95-0.06-0.86,0.57c0.1,0.66,0.8,0.46,1.2,0.71
		c0.44,0.27,0.73,0.08,0.95-0.33c0.25-0.48,0.54-0.94,0.79-1.41c0.78-1.45,1.8-2.61,3.52-2.95c1.28-0.25,1.63-1.32,1.91-2.34
		c0.7-2.55,2.11-4.69,3.71-6.74c0.57-0.73,1.31-0.98,2.26-1.03c1.08-0.06,2-1,2.88-1.28c1.98-0.63,1.65-2.33,2.3-3.51
		c0.89-1.61,1.42-3.41,2.7-4.84c0.97-1.08,0.72-2.64,1.27-3.92c0.3-0.69,0.66-1.43,1.36-1.45c2-0.07,2.52-1.4,3-2.98
		c1.03-3.42,2.46-4.14,5.89-3.1c0.35,0.11,0.63,0.27,0.56,0.63c-0.22,1.2-0.49,2.4-0.78,3.59c-0.05,0.2-0.3,0.5-0.47,0.51
		c-1.87,0.04-0.89,1.21-0.94,2.09c-0.12,2.03-0.66,3.91-2.21,5.45c-0.92,0.92-1.59,2.1-2.29,3.21c-0.22,0.34-0.1,0.85-0.11,1.28
		c-0.03,1.75-0.47,3.33-1.75,4.76c-1.21,1.36-2.46,2.71-2.89,4.79c-0.56,2.7-1.88,5.23-3.18,7.73c-1.67,3.2-1.93,6.87-2.66,10.38
		c-0.47,2.27,0.25,4.35,0.61,6.53c0.25,1.5,0.27,2.58,1.77,3.49c2.42,1.47,3.06,4.26,4.06,6.7c2.64,6.44,5.16,12.92,7.75,19.38
		c2.41,6.03,4.92,12.03,7.23,18.1c1.22,3.19,0.68,5.27-1.52,6.77c-2.31,1.57-6.45,1.64-8.08-2.8c-1.04-2.82-2.13-5.61-3.2-8.42
		c-0.23-0.61-0.59-0.92-1.32-0.91c-5.72,0.03-11.44,0.04-17.16,0.01c-1.6-0.01-0.97,1.29-1.1,1.94c-0.29,1.43,0,2.89,0.45,4.29
		c0.08,0.26,0.25,0.54,0.2,0.77c-0.34,1.39-0.16,2.62,0.67,3.84c0.36,0.53,0.01,1.33-0.42,1.84c-0.68,0.82-0.55,1.53,0.2,2.12
		c1.04,0.82,1.32,1.91,1.24,3.13c-0.16,2.49,0.32,4.71,2.42,6.35c0.41,0.32,0.51,0.85,0.39,1.48c-0.58,3.02-1.37,6.01-1.35,9.11
		c0.01,0.86,0.06,1.75,0.31,2.56c0.44,1.46,0.14,2.01-1.52,2.08c-5.18,0.23-10.36,0.08-15.54,0.22c-18.94,0.5-37.88,0.18-56.82,0.14
		c-4.93-0.01-9.89,0.11-14.82-0.21c-2.95-0.19-5.89-0.07-8.82-0.2c-0.9-0.04-1.4-0.28-1.8-1.44c-0.52-1.49-1.06-3.16-2.09-4.4
		c-1.13-1.37-2.99-1.22-4.6-1.61c-1.36-0.33-2.63-1.07-3.99-1.37c-2.12-0.46-3.34-1.89-4.15-3.67c-0.4-0.88-0.38-2-0.38-3.01
		c0-1.78-0.95-3.16-1.79-4.58c-0.18-0.3-0.49-0.54-0.39-0.93c0.52-2.01-0.11-3.97-0.29-5.93c-0.26-2.91,0.59-5.33,2.31-7.63
		c1.63-2.17,1.3-3.26-1.13-4.44c-1.5-0.73-1.92-1.92-2.46-3.48c-1.39-4-0.2-8.23-1.51-12.19c-0.26-0.79-0.25-1.8-0.01-2.61
		c0.6-2.11,0.02-3.94-1.04-5.68c-1.41-2.32-2.49-4.88-4.67-6.67c-0.36-0.3-0.51-0.43-0.92-0.04c-2.53,2.42-5.1,4.8-7.65,7.2
		c-0.73,0.69-1.41,1.42-2.13,2.12c-2,1.93-1.96,1.9-0.32,4.23c4.72,6.68,9.45,13.35,14.06,20.1c1.37,2.01,2.54,4.24,1.66,6.87
		c-0.39,1.16-1.22,2.12-2.31,2.37c-3.45,0.79-6.09,0.68-8.24-2.62c-4.64-7.11-9.28-14.22-13.84-21.38c-0.47-0.74-0.6-0.44-0.97-0.08
		c-2.32,2.25-4.64,4.5-6.98,6.72c-0.56,0.53-0.8,1.07-0.79,1.86c0.05,3.24,0.08,6.48-0.01,9.72c-0.04,1.45-0.24,2.91-1.16,4.18
		c-1.2,1.66-3.64,2.51-5.86,1.89c-1.95-0.54-3.43-2.5-3.5-4.54c-0.54-14.22-0.14-28.44-0.2-42.66c-0.02-5.12,3.56-7.38,8.19-5.26
		c2.25,1.04,2.5,3.29,2.53,5.4c0.09,5.52,0.03,11.04,0.04,16.56c0,0.33,0.09,0.67,0.14,1c0.23-0.2,0.48-0.39,0.69-0.61
		c3.72-3.87,7.43-7.75,11.15-11.62c2.09-2.18,4.15-4.41,6.32-6.51c0.74-0.72,0.46-1.02-0.11-1.49c-1.27-1.04-2.63-1.97-3.58-3.35
		c-1.12-1.63-1.69-3.51-2.32-5.35c-0.28-0.83-0.58-1.5-1.26-2.08c-2.4-2.05-5.34-3-8.21-4.12c-1.82-0.71-2.74-2.23-3.03-4.09
		c-0.11-0.69-0.56-0.85-1-0.98c-1.52-0.42-3.1-0.64-4.58-1.16c-1.95-0.68-3.72-1.6-5.03-3.44c-1.13-1.59-2.77-2.83-4.27-4.12
		c-1.25-1.07-1.14-2.2-0.64-3.59c0.35-0.99,1.36-2.04,0.2-3.22c-0.32-0.33,0.03-0.84,0.24-1.2c1.52-2.47,0.92-4.93-0.1-7.33
		c-0.46-1.09-0.07-1.95,0.61-2.51c1.17-0.95,0.96-2.15,0.81-3.27c-0.34-2.63-0.27-5.09,1.46-7.33c0.86-1.12,1.5-2.43,2.19-3.67
		c0.39-0.69,0.48-1.4-0.22-2.02c-0.23-0.2-0.4-0.48-0.54-0.75c-1.07-2.22-2.03-4.47-5.18-4.29c-0.82,0.05-1.19-0.93-1.25-1.74
		c-0.21-2.81-0.02-5.9,2.28-7.52c2.19-1.53,1.95-3.89,3.22-5.64c1.33-1.85,3.14-2.87,5.13-3.66c0.51-0.2,0.9-0.31,1.14-0.83
		c0.37-0.82,1.28-1.18,1.93-1.05c1,0.19,1.32-0.45,1.59-0.98c0.4-0.77,0.97-0.83,1.66-0.78c1.16,0.09,2.92-1.48,2.95-2.66
		c0.09-4.1,0.1-8.2,0.26-12.3c0.16-4.22,0.44-8.44,0.72-12.66c0.06-0.82,0.55-1.74,1.49-1.37c1.38,0.54,1.87-0.41,2.51-1.13
		c0.4-0.46,0.63-1.07,0.95-1.6c1.11-1.86,2.43-1.88,4.06-0.22c1.41,1.44,3.15,1.84,5.2,1.59c3.19-0.39,5.91-2.12,8.98-2.83
		c2.06-0.48,4.23-0.69,6.14-1.52c1.43-0.62,2.73-1.67,4.11-2.51c0.97-0.6,1.62-1.2,3.01-0.59c1.45,0.64,2.76-0.58,3.85-1.58
		c0.34-0.31,0.57-0.73,1.01-0.95c0.77-0.39,1.71-0.7,0.74-1.87c-0.25-0.31-0.17-0.96,0.33-1.26c0.66-0.4,1.39-0.93,2.15-0.61
		c0.67,0.29,0.93,1.02,0.81,1.81c-0.23,0.07-0.26,0.22-0.17,0.42C125.8,36.45,125.91,36.38,126.01,36.31z M249.82,118.01
		c-0.54,0.46-1.05,0.94-1.31,1.63c-0.19,0.52-0.77,0.78-1.11,0.67c-1.59-0.51-1.36,0.76-1.5,1.51c-0.21,1.1-0.37,2.35-1.15,3.05
		c-1.75,1.57-2.39,3.66-2.94,5.73c-0.3,1.13-0.01,2.71,1.14,3.35c1.2,0.67,1.07-1.03,1.71-1.47c0.06-0.04,0.11-0.12,0.17-0.17
		c1.35-0.96,1.58-2.38,1.51-3.88c-0.04-0.99,0.21-1.97,0.79-2.61c0.98-1.06,1.26-2.47,2.16-3.56c0.39-0.47,0.76-1.28,0.62-1.81
		c-0.21-0.81-0.21-1.51,0.06-2.26c1.85-0.36,0.49-1.53,0.6-2.33C250.4,116.63,250.39,117.42,249.82,118.01z M218.62,243.01
		c4.02-0.03,6.89,0.06,9.75-0.23c0.55-0.06,0.84-0.15,0.72-0.73c-0.54-2.56-0.1-5.05,0.46-7.55c0.46-2.04,0.81-4.1-1.09-5.78
		c-0.46-0.41-0.7-1.23-0.77-1.89c-0.28-2.52-0.75-4.85-1.9-7.26c-0.73-1.53,0.19-4.05-0.48-6.12c-0.12-0.38,0.62-0.79,0.34-1.38
		c-0.69-1.47-0.67-3.04-0.64-4.62c0-0.19,0.18-0.49-0.15-0.57c-0.06-0.01-0.22,0.27-0.29,0.44c-0.74,2.02-1.39,4.08-2.24,6.06
		c-0.66,1.54-1.06,3.32-2.59,4.31c-1.45,0.93-4.52,0.62-5.87-0.45c-1.75-1.38-2.34-3.19-1.64-5.5c1.46-4.82,3.55-9.42,5.37-14.11
		c3.46-8.97,7.07-17.88,10.53-26.84c1.52-3.93,3.7-5.87,7.24-5.77c1.5,0.04,1.63-0.91,1.34-1.77c-0.79-2.39-1.13-4.75-0.67-7.25
		c0.61-3.34,1.09-6.74,2.31-9.91c1.07-2.78,2.8-5.29,3.58-8.21c0.11-0.42,0.44-0.97-0.17-1.19c-0.82-0.3-1.13-1.02-1.65-1.58
		c-0.38-0.41-0.42-1.65-1.35-0.94c-0.58,0.45-1.5,0.24-1.82,1.01c-0.43,1.04-1.26,0.94-2.09,0.75c-0.34-0.08-0.64-0.36-0.89,0.09
		c-0.97,1.78-2.34,3.34-2.75,5.43c-0.26,1.3-0.86,2.72-2.22,3.1c-2.24,0.62-3.32,2.19-4.24,4.1c-0.71,1.47-2.57,1.66-4.55,0.62
		c-1.47-0.77-1.85-1.92-1.17-3.38c0.21-0.45,0.46-0.95,0.44-1.41c-0.13-3.88,2.26-6.69,4.04-9.76c0.65-1.12,1.55-2.05,1.54-3.52
		c-0.02-1.69,0.54-3.02,2.61-3.21c1.01-0.09,2.07-0.45,2.92-0.98c0.5-0.31,1.69-0.1,1.43-1.4c-0.15-0.73,0.32-2.13,0.1-2.22
		c-1.45-0.6-1.78-2.09-2.76-3.01c-1.21-1.13-1.59-3.24-0.9-4.79c0.69-1.57,1.24-3.2,1.85-4.81c0.06-0.15,0.05-0.32,0.08-0.49
		c-0.14,0.07-0.31,0.1-0.4,0.2c-1.3,1.45-3.15,1.19-4.79,1.41c-0.85,0.11-1.76-0.57-2.21-1.25c-0.43-0.66-0.12-1.54,0.55-2.11
		c0.33-0.28,0.41-0.68,0.26-0.97c-0.58-1.11-0.02-2.03,0.71-2.59c1.52-1.17,1.19-2.24,0.24-3.52c-0.67-0.92-0.37-1.71,0.75-1.96
		c0.84-0.18,0.52-0.5,0.23-0.86c-0.84-1.04-1.63-2.09-0.62-3.46c0.2-0.27-0.05-0.35-0.17-0.43c-2.35-1.74-4.89-2.99-7.87-3.21
		c-1.19-0.08-2.04-0.8-2.67-1.82c-0.53-0.86,0.05-1.43,0.44-2c1.04-1.47,0.7-2.57-1.06-3.12c-0.8-0.25-1.64-0.38-2.45-0.63
		c-1.49-0.45-3.01-0.76-4.5-1.2c-1.31-0.38-2.71-0.53-4.01-1.07c-0.86-0.36-1.75-0.53-2.46,0.33c-0.28,0.34-0.67,0.32-1.04,0.43
		c-1.34,0.38-1.94-1.11-2.93-1.17c-2.34-0.13-4.5-0.48-6.48-1.88c-2.61-1.86-5.45-3.4-8.55-4.26c-9.02-2.51-18.04-5.04-27.13-7.28
		c-3.14-0.78-4.99-2.19-5.6-5.41c-0.24-1.26-0.72-2.71-1.86-3.5c-2.09-1.45-4.75-1.57-6.99-2.77c-2.46-1.32-5.3-1.93-7.46-3.89
		c-0.27-0.24-0.85-0.26-1.12,0.03c-1.32,1.48-3.35,1.55-4.92,2.52c-0.72,0.44-1.6,0.43-2.36,0.03c-0.67-0.35-0.57-1.16-0.37-1.61
		c0.51-1.15,0.78-2.42,1.67-3.42c0.42-0.48,1.23-0.91,0.74-1.86c-0.63-1.21-0.31-2.32,0.46-3.38c0.75-1.03,1.81-1.85,2.19-3.15
		c0.24-0.82,0.54-1.94-0.11-2.35c-0.58-0.36-1.38-0.84-2.48-0.44c-1.47,0.55-2.96,0.68-4.07,2.12c-0.6,0.77-1.64,1.43-2.85,1.64
		c-1.19,0.21-2.64-0.37-3.38,0.11c-1.36,0.86-3.07,1.17-4.13,2.5c-0.3,0.38-0.71,0.59-1.19,0.69c-2.04,0.44-4.09,0.83-6.11,1.34
		c-3.15,0.8-5.99,2.76-9.33,2.82c-2.42,0.05-5.27,1.28-6.81-1.94c-0.11-0.24-0.41-0.68-0.71-0.48c-0.24,0.15-0.31,0.59-0.22,1
		c0.22,1.08,0.03,1.73-1.37,1.89c-1.1,0.13-1.9,1.49-3.26,1.19c-0.04,0.19-0.1,0.37-0.11,0.56c-0.24,3.74-0.55,7.48-0.71,11.22
		c-0.16,3.78-0.44,7.58-0.16,11.33c0.19,2.51-1.07,4.2-2.58,5.36c-1.15,0.88-2.85,1.27-4.25,2.08c-0.72,0.42-1.9,0.07-2.39,1.18
		c-0.07,0.15-0.29,0.3-0.46,0.34c-3.52,0.75-5.41,3.07-6.34,6.42c-0.24,0.86-0.55,1.92-1.39,2.35c-1.6,0.81-2.13,2.2-2.52,3.77
		c-0.47,1.87-0.08,2.51,1.8,2.85c1.67,0.3,3.12,0.72,3.33,2.86c0.08,0.8,0.74,1.62,1.3,2.28c0.99,1.17,1.32,2.46,0.71,3.8
		c-0.76,1.67-1.65,3.31-2.69,4.82c-1.22,1.76-1.19,3.59-1,5.57c0.13,1.37,0.54,2.89-0.48,4.09c-0.61,0.72-0.84,1.11-0.52,2.24
		c0.98,3.46,0.43,7-0.15,10.52c-0.19,1.15-1.97,2.45,0.1,3.63c1.4,0.79,2.3,2.18,3.5,3.22c0.62,0.54,0.78,1.39,1.51,1.87
		c1.74,1.15,3.62,1.79,5.67,2.19c1.66,0.32,3.69,0.55,4.09,2.76c0.26,1.41,0.93,2.38,2.19,2.94c2.37,1.07,4.96,1.6,7.09,3.29
		c1.3,1.03,2.83,1.85,3.19,3.56c0.4,1.88,1.45,3.44,2.13,5.17c0.55,1.41,2.19,1.88,3.05,3.08c0.63,0.87,1.22,0.99,1.95,0.05
		c1.17-1.51,2.71-2.06,4.65-1.98c1.93,0.08,3.42,0.73,4.33,2.42c0.89,1.65,0.68,3.36-0.31,4.87c-0.46,0.71-0.36,0.99,0.12,1.58
		c3.44,4.23,6.7,8.3,6.16,14.52c-0.31,3.54,0.13,7.39,0.87,10.98c0.37,1.79-0.06,4.52,2.89,5.02c0.28,0.05,0.54,0.24,0.81,0.36
		c0.01-0.36,0.08-0.73,0.02-1.08c-0.47-2.75,1.56-5.21,4.39-5.29c2.52-0.07,4.23,1.48,5.46,4.84c0.79,2.16,1.85,4.22,3.85,5.45
		c4.16,2.57,8.5,2.36,12.8,0.3c3.31-1.58,4.77-4.43,3.71-7.85c-0.93-3.01-3.62-4.17-6.41-5c-4.44-1.31-9.04-2.06-13.36-3.83
		c-3.53-1.44-6.86-3.39-8.32-6.95c-3.22-7.86-0.33-15.73,8.32-18.88c5.19-1.89,10.57-2.02,15.9-0.93
		c6.12,1.25,10.95,4.21,12.4,10.92c0.52,2.4-0.76,4.89-3.17,5.83c-2.08,0.81-4.34-0.13-5.52-2.32c-1.22-2.27-2.4-4.6-4.58-6.13
		c-2.8-1.97-8.98-1.68-12.2,0.43c-2.51,1.64-3.71,5.22-0.75,7.71c1.11,0.93,2.39,1.55,3.75,2c4.9,1.62,10.05,2.37,14.85,4.33
		c3.71,1.52,7.22,3.49,8.77,7.41c3.18,8.03,0.19,17.22-8.95,20.8c-5.6,2.2-11.41,2.19-17.19,1.14c-4.62-0.84-8.57-3.07-11.26-7.13
		c-0.53-0.8-1.16-2.67-1.81-0.03c-0.03,0.14-0.22,0.23-0.3,0.36c-0.76,1.3-2.13,2.44-2.21,3.89c-0.18,3.53-0.39,7.12,1.34,10.45
		c0.65,1.24,0.97,2.57,1.04,4.01c0.05,1.06-0.2,2.36,0.76,3.21c1.94,1.7,4.36,2.38,6.81,2.91c2.93,0.64,5.77,1.2,6.46,4.95
		c0.15,0.8,0.63,2.39,2.1,2.48c2.54,0.15,5.08,0.06,7.62,0.2c5.33,0.28,10.68,0.22,16.02,0.23
		C178.78,243.23,199.28,243.49,218.62,243.01z M236.65,197.16c1.92,0,3.84-0.04,5.76,0.02c0.86,0.03,0.89-0.23,0.61-0.91
		c-0.52-1.28-0.97-2.59-1.45-3.89c-1.92-5.2-3.83-10.39-5.74-15.59c-0.05-0.14-0.08-0.29-0.12-0.44c-0.05,0.12-0.12,0.23-0.16,0.36
		c-1.33,3.63-3.15,7.15-2.63,11.22c0.13,1.06-0.3,2.03-0.92,2.81c-1.31,1.62-1.66,3.53-1.95,5.49c-0.1,0.67,0.04,0.99,0.86,0.96
		C232.81,197.11,234.74,197.16,236.65,197.16z M131.85,39.81c-0.27-0.18-0.38-0.3-0.49-0.31c-0.14-0.01-0.28,0.07-0.42,0.12
		c0.07,0.11,0.12,0.31,0.2,0.32C131.3,39.96,131.48,39.88,131.85,39.81z M133.08,41.49c-0.17-0.04-0.29-0.1-0.38-0.08
		c-0.12,0.03-0.3,0.13-0.31,0.22c-0.03,0.25,0.11,0.2,0.26,0.09C132.77,41.64,132.9,41.58,133.08,41.49z M134.58,40.09
		c-0.19-0.07-0.3-0.14-0.35-0.11c-0.08,0.04-0.13,0.14-0.17,0.23c-0.01,0.02,0.13,0.14,0.17,0.13
		C134.33,40.3,134.41,40.21,134.58,40.09z"/>
	<path fill="#A21D1D" d="M77.47,265.81c0.95-4.61,1.89-9.22,2.83-13.83c0.06-0.32,0.42-0.71,0.04-0.95
		c-0.12-0.08-0.58,0.31-0.84,0.53c-3.37,2.88-6.74,5.77-10.1,8.66c-1.48,1.27-3.02,1.29-4.61,0.2c-1.5-1.04-1.79-2.43-1.27-4.11
		c1.69-5.5,3.4-10.99,5.46-16.36c0.76-1.99,2.46-2.33,3.97-0.94c0.89,0.82,0.71,1.8,0.39,2.78c-1.29,3.91-2.6,7.8-3.9,11.71
		c-0.1,0.29-0.22,0.81-0.11,0.88c0.39,0.25,0.61-0.21,0.86-0.42c3.06-2.57,6.11-5.15,9.15-7.75c1.3-1.12,2.63-1.39,4.17-0.51
		c1.6,0.92,1.8,2.31,1.49,3.93c-0.75,3.92-1.5,7.84-2.24,11.76c-0.06,0.3-0.11,0.83,0.01,0.89c0.35,0.16,0.52-0.26,0.72-0.48
		c2.74-3.07,5.47-6.15,8.21-9.23c0.79-0.89,1.66-1.51,2.93-0.95c1.56,0.69,2.04,2.19,0.96,3.51c-3.79,4.65-7.81,9.09-11.98,13.4
		c-1.08,1.12-2.42,1.33-3.85,0.61C78.4,268.44,77.46,267.5,77.47,265.81z"/>
	<path fill="#A21D1D" d="M245.19,267.99c-0.96,0.06-1.57-0.54-2-1.36c-2.58-4.92-5.15-9.84-7.73-14.75
		c-0.66-1.26-0.72-2.45,0.33-3.52c1.04-1.05,2.23-1.28,3.6-0.66c4.87,2.21,9.86,4.11,14.94,5.8c0.33,0.11,0.76,0.52,1.06,0.1
		c0.1-0.14-0.23-0.63-0.42-0.92c-1.99-3.04-3.99-6.08-5.98-9.12c-1.05-1.6-0.92-2.76,0.38-3.63c1.33-0.9,2.42-0.63,3.53,0.95
		c3.08,4.38,6.14,8.77,9.2,13.16c0.75,1.07,1.57,2.17,0.62,3.48c-0.97,1.34-2.34,2.16-4.02,1.86c-3.83-0.69-7.39-2.28-11.02-3.63
		c-1.68-0.63-3.33-1.35-5-2.02c-0.24-0.1-0.53-0.34-0.75-0.05c-0.07,0.09,0.13,0.4,0.24,0.59c1.83,3.28,3.7,6.54,5.5,9.83
		C248.77,266.11,247.56,268.02,245.19,267.99z"/>
	<path fill="#A21D1D" d="M180.1,268.53c-0.09-1.36,0.44-2.34,1.71-2.88c1.3-0.56,2.41-0.22,3.37,0.77
		c3.65,3.76,7.44,7.37,11.44,10.74c0.28,0.24,0.51,0.76,0.95,0.5c0.15-0.09,0.05-0.67-0.02-1.01c-0.77-3.67-1.55-7.33-2.33-11
		c-0.31-1.44,0.18-2.43,1.67-2.8c1.48-0.37,2.34,0.37,2.68,1.69c1.45,5.72,2.86,11.45,4.25,17.19c0.25,1.02-0.1,1.95-1.05,2.46
		c-1.56,0.84-3.19,0.93-4.65-0.15c-1.6-1.18-3.13-2.48-4.6-3.83c-2.48-2.26-4.9-4.59-7.35-6.88c-0.19-0.18-0.44-0.29-0.66-0.44
		c-0.02,0.26-0.08,0.53-0.05,0.79c0.51,3.51,1.02,7.02,1.56,10.53c0.31,2.02-0.35,3.15-2.03,3.4c-1.81,0.26-2.71-0.57-2.95-2.69
		C181.4,279.46,180.74,274,180.1,268.53z"/>
	<path fill="#A21D1D" d="M164.53,289.04c-6.3,0.06-10.76-2.86-11.74-7.71c-1.33-6.58,1.64-13.39,9.99-14.52
		c9.5-1.28,16.62,6.96,13.27,15.79c-1.67,4.39-5.39,5.94-9.72,6.43C165.73,289.1,165.13,289.04,164.53,289.04z M164.55,285.72
		c4.37,0.01,7.16-2.87,7.15-7.36c-0.01-4.93-2.84-8.2-7.11-8.22c-4.23-0.02-7.04,3.15-7.05,7.96
		C157.54,282.81,160.2,285.71,164.55,285.72z"/>
	<path fill="#A21D1D" d="M115.77,282.62c-4.52-0.62-8.81-1.46-11.79-5.25c-0.79-1.01-1.19-2.19-1.27-3.43
		c-0.08-1.23,0.26-2.39,1.72-2.6c1.42-0.2,2.53,0.32,2.96,1.81c0.33,1.14,0.29,2.39,1.03,3.41c1.41,1.93,5.24,3.09,7.5,2.27
		c2.06-0.75,2.5-2.68,0.93-4.23c-1.39-1.38-3.24-2.03-4.87-3.02c-1.64-1-3.35-1.94-4.49-3.54c-2.53-3.54-0.4-7.88,4.34-8.33
		c4.1-0.39,7.92,0.77,10.94,3.81c0.99,0.99,1.54,2.21,1.48,3.67c-0.05,1.03-0.56,1.68-1.51,1.91c-0.99,0.23-1.94,0.05-2.51-0.91
		c-0.26-0.44-0.42-0.95-0.57-1.44c-0.79-2.64-3.82-4.37-6.51-3.71c-0.86,0.21-1.59,0.58-1.85,1.5c-0.25,0.9,0.23,1.54,0.84,2.11
		c1.81,1.69,4.17,2.49,6.2,3.82c0.96,0.64,1.96,1.26,2.8,2.04c3.32,3.1,2.16,8.15-2.18,9.52
		C117.91,282.34,116.78,282.43,115.77,282.62z"/>
	<path fill="#A21D1D" d="M218.31,270.3c-2.33,0.16-4.85,0.66-7.42,0.54c-2.91-0.14-4.8-1.28-5.61-3.51
		c-0.79-2.18-0.13-4.56,2.08-6.28c3.15-2.45,6.72-3.82,10.81-3.17c1.46,0.23,2.75,0.85,3.58,2.17c0.56,0.88,0.53,1.77-0.18,2.54
		c-0.71,0.76-1.61,1.04-2.61,0.56c-0.39-0.19-0.76-0.44-1.11-0.7c-2.32-1.69-4.74-1.66-7.02,0.15c-0.86,0.69-1.62,1.52-1.22,2.76
		c0.4,1.22,1.51,1.42,2.54,1.37c2.27-0.11,4.53-0.38,6.79-0.58c1.97-0.18,3.92-0.2,5.71,0.81c2.96,1.68,3.49,5.7,1.14,8.64
		c-2.84,3.55-10.03,5.85-14.41,4.62c-1.4-0.39-2.53-1.17-3.43-2.3c-0.74-0.94-1.02-1.97-0.09-2.92c0.93-0.95,2.08-1.14,3.28-0.45
		c0.34,0.2,0.62,0.5,0.9,0.78c2.63,2.59,7.22,2.23,9.49-0.76c0.66-0.87,1.01-1.82,0.44-2.89
		C221.22,270.24,219.86,270.31,218.31,270.3z"/>
	<path fill="#A21D1D" d="M138.55,284.09c2.48,0.08,4.32-0.97,5.47-3.17c0.62-1.17,1.5-1.78,2.82-1.44c1.29,0.32,2,1.11,1.66,2.55
		c-0.43,1.79-1.6,3.04-3.08,3.97c-4.15,2.61-12.07,1.83-15.64-1.55c-3.43-3.24-3.8-7.23-2.43-11.48c1.38-4.28,4.32-6.98,8.82-7.62
		c4.67-0.67,8.79,0.49,11.89,4.29c0.61,0.75,1,1.62,1.11,2.61c0.11,1-0.24,1.8-1.19,2.1c-0.98,0.31-2.01,0.3-2.69-0.7
		c-0.29-0.43-0.54-0.89-0.76-1.35c-1.18-2.5-3.13-3.7-5.91-3.69c-2.74,0.01-4.49,1.44-5.68,3.72c-0.86,1.65-1.24,3.47-1.25,5.32
		C131.65,281.6,134.3,284.06,138.55,284.09z"/>
	<path fill="#A21D1D" d="M235.13,273.04c-1.04,0.03-1.76-0.46-2.17-1.39c-2.35-5.29-4.72-10.58-7.03-15.89
		c-0.58-1.34-0.29-2.55,1.15-3.21c1.45-0.67,2.6-0.21,3.28,1.2c2.51,5.17,5.03,10.35,7.47,15.55
		C238.74,271.24,237.37,273.06,235.13,273.04z"/>
	<path fill="#A21D1D" d="M103.78,257.19c-0.15,0.47-0.29,1.05-0.51,1.6c-1.99,5.05-3.99,10.1-6,15.15c-0.7,1.75-1.95,2.31-3.63,1.63
		c-1.64-0.66-2.12-1.93-1.36-3.7c2.19-5.1,4.39-10.2,6.6-15.29c0.54-1.25,1.4-2.1,2.88-1.77
		C102.9,255.08,103.61,255.84,103.78,257.19z"/>
	<path fill="#FEFEFE" d="M253.56,109.95c0.04-2.82,0.5-3.37,3.24-3.73c0.45-0.06,0.68-0.32,1.01-0.52c0.62-0.39,1.31-0.45,1.78,0.2
		c0.39,0.54,0.45,1.26-0.14,1.69c-0.56,0.41-0.67,0.93-0.87,1.5c-0.7,2.07-2.56,2.9-4.3,2.05
		C253.69,110.85,253.44,110.49,253.56,109.95z M256.39,108.28c-0.2,0.06-0.38,0.12-0.56,0.18c0.16,0.05,0.32,0.13,0.48,0.12
		c0.12-0.01,0.32-0.12,0.33-0.2C256.67,108.11,256.51,108.18,256.39,108.28z"/>
	<path fill="#FEFEFE" d="M141.22,30.64c0.76-0.19,1.18,0.11,1.41,0.77c0.48,1.44-0.66,4.03-2.09,4.55
		c-0.63,0.23-1.73,0.64-1.64-0.61c0.1-1.4,0.26-2.85,0.95-4.14C140.14,30.65,140.65,30.44,141.22,30.64z"/>
	<path fill="#FEFEFE" d="M241.52,116.5c1.56,0.11,1.57,1.35,1.7,2.44c0.1,0.77-0.34,1.32-1.11,1.14c-1.21-0.28-1.93-1.12-2-2.41
		C240.07,116.71,240.66,116.46,241.52,116.5z"/>
	<path fill="#FEFEFE" d="M138.13,34.33c0.02,0.86-0.29,1.34-1.09,1.3c-0.81-0.04-1.29-0.5-1.31-1.32c-0.02-0.8,0.45-1.07,1.2-1.08
		C137.78,33.23,138.18,33.59,138.13,34.33z"/>
	<path d="M218.62,243.01c-19.34,0.48-39.84,0.22-60.34,0.16c-5.34-0.01-10.69,0.04-16.02-0.23c-2.55-0.13-5.09-0.04-7.62-0.2
		c-1.48-0.09-1.96-1.68-2.1-2.48c-0.69-3.75-3.53-4.31-6.46-4.95c-2.45-0.53-4.87-1.21-6.81-2.91c-0.96-0.84-0.71-2.14-0.76-3.21
		c-0.07-1.45-0.39-2.77-1.04-4.01c-1.73-3.32-1.52-6.92-1.34-10.45c0.08-1.45,1.45-2.59,2.21-3.89c0.08-0.13,0.27-0.22,0.3-0.36
		c0.65-2.64,1.28-0.77,1.81,0.03c2.69,4.07,6.65,6.29,11.26,7.13c5.78,1.05,11.59,1.06,17.19-1.14c9.14-3.59,12.13-12.77,8.95-20.8
		c-1.55-3.91-5.05-5.89-8.77-7.41c-4.8-1.96-9.95-2.71-14.85-4.33c-1.36-0.45-2.63-1.07-3.75-2c-2.96-2.48-1.76-6.06,0.75-7.71
		c3.22-2.11,9.4-2.4,12.2-0.43c2.18,1.53,3.36,3.86,4.58,6.13c1.18,2.2,3.44,3.13,5.52,2.32c2.41-0.94,3.69-3.43,3.17-5.83
		c-1.45-6.71-6.28-9.67-12.4-10.92c-5.33-1.09-10.71-0.96-15.9,0.93c-8.65,3.15-11.54,11.01-8.32,18.88
		c1.46,3.56,4.79,5.51,8.32,6.95c4.32,1.77,8.91,2.52,13.36,3.83c2.79,0.82,5.48,1.99,6.41,5c1.05,3.41-0.41,6.26-3.71,7.85
		c-4.3,2.06-8.64,2.27-12.8-0.3c-1.99-1.23-3.06-3.29-3.85-5.45c-1.23-3.37-2.93-4.91-5.46-4.84c-2.82,0.08-4.85,2.54-4.39,5.29
		c0.06,0.35-0.01,0.72-0.02,1.08c-0.27-0.12-0.53-0.32-0.81-0.36c-2.95-0.5-2.52-3.23-2.89-5.02c-0.74-3.59-1.18-7.44-0.87-10.98
		c0.54-6.22-2.72-10.29-6.16-14.52c-0.48-0.59-0.58-0.87-0.12-1.58c0.99-1.51,1.19-3.22,0.31-4.87c-0.91-1.69-2.4-2.34-4.33-2.42
		c-1.94-0.08-3.48,0.47-4.65,1.98c-0.73,0.94-1.32,0.83-1.95-0.05c-0.86-1.19-2.5-1.66-3.05-3.08c-0.68-1.73-1.73-3.29-2.13-5.17
		c-0.36-1.71-1.9-2.53-3.19-3.56c-2.12-1.68-4.72-2.22-7.09-3.29c-1.26-0.57-1.93-1.54-2.19-2.94c-0.41-2.21-2.43-2.43-4.09-2.76
		c-2.05-0.4-3.93-1.04-5.67-2.19c-0.74-0.48-0.89-1.34-1.51-1.87c-1.2-1.04-2.1-2.42-3.5-3.22c-2.07-1.18-0.29-2.48-0.1-3.63
		c0.58-3.52,1.13-7.06,0.15-10.52c-0.32-1.13-0.09-1.52,0.52-2.24c1.02-1.21,0.61-2.72,0.48-4.09c-0.19-1.98-0.22-3.81,1-5.57
		c1.05-1.51,1.93-3.15,2.69-4.82c0.61-1.33,0.28-2.63-0.71-3.8c-0.56-0.66-1.22-1.48-1.3-2.28c-0.21-2.14-1.66-2.56-3.33-2.86
		c-1.88-0.33-2.26-0.98-1.8-2.85c0.39-1.56,0.92-2.95,2.52-3.77c0.84-0.43,1.15-1.48,1.39-2.35c0.93-3.35,2.82-5.67,6.34-6.42
		c0.17-0.04,0.39-0.19,0.46-0.34c0.49-1.12,1.68-0.77,2.39-1.18c1.4-0.81,3.11-1.2,4.25-2.08c1.51-1.16,2.77-2.86,2.58-5.36
		c-0.28-3.75,0-7.56,0.16-11.33c0.16-3.74,0.46-7.48,0.71-11.22c0.01-0.19,0.07-0.37,0.11-0.56c1.36,0.29,2.16-1.06,3.26-1.19
		c1.4-0.16,1.59-0.82,1.37-1.89c-0.08-0.41-0.02-0.85,0.22-1c0.3-0.19,0.6,0.24,0.71,0.48c1.54,3.22,4.39,1.99,6.81,1.94
		c3.35-0.06,6.18-2.02,9.33-2.82c2.02-0.51,4.07-0.9,6.11-1.34c0.47-0.1,0.89-0.31,1.19-0.69c1.06-1.33,2.77-1.64,4.13-2.5
		c0.75-0.47,2.2,0.1,3.38-0.11c1.21-0.22,2.25-0.88,2.85-1.64c1.12-1.43,2.6-1.57,4.07-2.12c1.1-0.41,1.9,0.08,2.48,0.44
		c0.65,0.4,0.35,1.53,0.11,2.35c-0.38,1.29-1.44,2.11-2.19,3.15c-0.77,1.06-1.09,2.18-0.46,3.38c0.5,0.95-0.32,1.38-0.74,1.86
		c-0.88,1-1.16,2.27-1.67,3.42c-0.2,0.45-0.3,1.26,0.37,1.61c0.76,0.4,1.64,0.42,2.36-0.03c1.58-0.96,3.6-1.04,4.92-2.52
		c0.26-0.3,0.85-0.27,1.12-0.03c2.15,1.95,4.99,2.56,7.46,3.89c2.25,1.21,4.9,1.32,6.99,2.77c1.13,0.79,1.62,2.23,1.86,3.5
		c0.6,3.23,2.45,4.64,5.6,5.41c9.09,2.25,18.11,4.77,27.13,7.28c3.1,0.86,5.93,2.4,8.55,4.26c1.98,1.41,4.14,1.76,6.48,1.88
		c0.99,0.05,1.59,1.55,2.93,1.17c0.38-0.11,0.76-0.08,1.04-0.43c0.71-0.86,1.6-0.69,2.46-0.33c1.3,0.55,2.7,0.69,4.01,1.07
		c1.49,0.44,3.02,0.74,4.5,1.2c0.81,0.25,1.65,0.38,2.45,0.63c1.77,0.55,2.1,1.65,1.06,3.12c-0.4,0.56-0.97,1.14-0.44,2
		c0.63,1.03,1.48,1.74,2.67,1.82c2.99,0.21,5.52,1.47,7.87,3.21c0.12,0.09,0.37,0.16,0.17,0.43c-1.02,1.37-0.22,2.41,0.62,3.46
		c0.29,0.36,0.61,0.68-0.23,0.86c-1.12,0.24-1.42,1.04-0.75,1.96c0.94,1.29,1.28,2.35-0.24,3.52c-0.73,0.56-1.29,1.48-0.71,2.59
		c0.15,0.29,0.07,0.69-0.26,0.97c-0.67,0.57-0.99,1.46-0.55,2.11c0.45,0.69,1.36,1.36,2.21,1.25c1.64-0.22,3.49,0.04,4.79-1.41
		c0.09-0.1,0.27-0.14,0.4-0.2c-0.02,0.16-0.02,0.34-0.08,0.49c-0.6,1.61-1.15,3.24-1.85,4.81c-0.69,1.55-0.3,3.65,0.9,4.79
		c0.98,0.92,1.32,2.42,2.76,3.01c0.22,0.09-0.25,1.49-0.1,2.22c0.26,1.3-0.93,1.1-1.43,1.4c-0.86,0.53-1.92,0.89-2.92,0.98
		c-2.07,0.19-2.63,1.53-2.61,3.21c0.02,1.47-0.89,2.4-1.54,3.52c-1.78,3.07-4.17,5.88-4.04,9.76c0.02,0.47-0.23,0.97-0.44,1.41
		c-0.68,1.46-0.3,2.61,1.17,3.38c1.98,1.04,3.84,0.85,4.55-0.62c0.93-1.91,2-3.47,4.24-4.1c1.36-0.38,1.96-1.79,2.22-3.1
		c0.41-2.1,1.77-3.66,2.75-5.43c0.25-0.46,0.55-0.17,0.89-0.09c0.83,0.19,1.66,0.29,2.09-0.75c0.32-0.77,1.23-0.56,1.82-1.01
		c0.93-0.71,0.97,0.53,1.35,0.94c0.52,0.56,0.83,1.28,1.65,1.58c0.61,0.22,0.28,0.77,0.17,1.19c-0.78,2.92-2.51,5.43-3.58,8.21
		c-1.22,3.17-1.7,6.56-2.31,9.91c-0.46,2.5-0.11,4.86,0.67,7.25c0.28,0.86,0.16,1.81-1.34,1.77c-3.55-0.09-5.73,1.84-7.24,5.77
		c-3.46,8.97-7.07,17.88-10.53,26.84c-1.81,4.69-3.9,9.29-5.37,14.11c-0.7,2.31-0.11,4.11,1.64,5.5c1.35,1.06,4.42,1.38,5.87,0.45
		c1.54-0.98,1.94-2.76,2.59-4.31c0.84-1.98,1.49-4.04,2.24-6.06c0.06-0.17,0.23-0.46,0.29-0.44c0.33,0.08,0.15,0.38,0.15,0.57
		c-0.03,1.57-0.05,3.15,0.64,4.62c0.28,0.59-0.47,1-0.34,1.38c0.67,2.06-0.25,4.58,0.48,6.12c1.15,2.41,1.62,4.74,1.9,7.26
		c0.07,0.66,0.31,1.48,0.77,1.89c1.9,1.68,1.55,3.74,1.09,5.78c-0.56,2.5-1,4.99-0.46,7.55c0.12,0.58-0.16,0.68-0.72,0.73
		C225.5,243.07,222.64,242.98,218.62,243.01z M187.85,165.72c-4.88,0-9.76,0.03-14.64-0.01c-3.54-0.03-5.53,2.04-5.54,5.5
		c-0.05,13.52-0.03,27.03,0.01,40.55c0,1.25,0.23,2.51,1.06,3.61c1.62,2.15,4.07,2.04,6.24,2.04c9.5-0.01,19.01,0.35,28.51-0.17
		c2.83-0.16,4.05-1.52,3.99-4.6c-0.04-2.06-1.71-3.47-4.11-3.47c-7.96,0-15.92-0.03-23.87,0.03c-1.14,0.01-1.34-0.33-1.32-1.38
		c0.06-4.08,0.06-8.16,0-12.24c-0.01-0.97,0.27-1.16,1.19-1.17c7.18-0.1,14.37,0.29,21.55-0.2c2.59-0.18,3.72-1.46,3.69-4.52
		c-0.02-1.93-1.59-3.32-3.75-3.32c-7.2,0-14.4-0.01-21.59,0.02c-0.79,0-1.1-0.12-1.08-1.01c0.06-3.52,0.06-7.04,0-10.56
		c-0.01-0.87,0.25-1.03,1.07-1.05c7.86-0.11,15.73,0.28,23.59-0.2c2.34-0.14,3.93-1.63,3.92-3.94c0-2.25-1.65-3.9-3.91-3.9
		C197.84,165.72,192.84,165.72,187.85,165.72z"/>
	<path d="M236.65,197.16c-1.92,0-3.84-0.05-5.76,0.02c-0.81,0.03-0.96-0.29-0.86-0.96c0.28-1.96,0.64-3.87,1.95-5.49
		c0.63-0.78,1.06-1.75,0.92-2.81c-0.52-4.07,1.3-7.59,2.63-11.22c0.04-0.12,0.11-0.24,0.16-0.36c0.04,0.15,0.07,0.3,0.12,0.44
		c1.91,5.2,3.83,10.39,5.74,15.59c0.48,1.3,0.93,2.61,1.45,3.89c0.28,0.69,0.24,0.94-0.61,0.91
		C240.49,197.12,238.57,197.16,236.65,197.16z"/>
	<path d="M249.98,118.22c-0.27,0.75-0.26,1.45-0.06,2.26c0.14,0.53-0.23,1.34-0.62,1.81c-0.9,1.08-1.19,2.5-2.16,3.56
		c-0.59,0.64-0.84,1.62-0.79,2.61c0.07,1.5-0.16,2.92-1.51,3.88c-0.06,0.05-0.11,0.12-0.17,0.17c-0.65,0.44-0.51,2.14-1.71,1.47
		c-1.15-0.64-1.44-2.22-1.14-3.35c0.55-2.07,1.2-4.16,2.94-5.73c0.78-0.7,0.94-1.95,1.15-3.05c0.14-0.75-0.08-2.02,1.5-1.51
		c0.34,0.11,0.92-0.15,1.11-0.67c0.25-0.69,0.77-1.17,1.31-1.63C249.87,118.08,249.93,118.15,249.98,118.22z"/>
	<path d="M249.82,118.01c0.57-0.59,0.57-1.39,0.76-2.12c-0.11,0.8,1.25,1.97-0.6,2.33C249.93,118.15,249.87,118.08,249.82,118.01z"
		/>
	<path d="M131.85,39.81c-0.37,0.08-0.55,0.15-0.7,0.13c-0.08-0.01-0.14-0.21-0.2-0.32c0.14-0.04,0.28-0.13,0.42-0.12
		C131.47,39.51,131.57,39.63,131.85,39.81z"/>
	<path d="M133.08,41.49c-0.18,0.1-0.31,0.15-0.43,0.23c-0.15,0.11-0.29,0.15-0.26-0.09c0.01-0.08,0.19-0.18,0.31-0.22
		C132.79,41.39,132.91,41.45,133.08,41.49z"/>
	<path d="M134.58,40.09c-0.17,0.12-0.25,0.21-0.35,0.24c-0.04,0.01-0.18-0.11-0.17-0.13c0.03-0.09,0.09-0.19,0.17-0.23
		C134.28,39.95,134.39,40.03,134.58,40.09z"/>
	<path d="M126.01,36.31c-0.11,0.07-0.22,0.14-0.32,0.21c-0.09-0.2-0.06-0.35,0.17-0.42C125.91,36.17,125.96,36.24,126.01,36.31z"/>
	<path d="M164.55,285.72c-4.35-0.01-7.01-2.91-7-7.62c0.01-4.81,2.82-7.98,7.05-7.96c4.27,0.02,7.1,3.29,7.11,8.22
		C171.71,282.85,168.92,285.73,164.55,285.72z"/>
	<path d="M256.39,108.28c0.12-0.1,0.28-0.17,0.25,0.1c-0.01,0.08-0.21,0.2-0.33,0.2c-0.16,0.01-0.32-0.08-0.48-0.12
		C256.02,108.41,256.19,108.35,256.39,108.28z"/>
	<path fill="#FEFEFE" d="M187.85,165.72c5,0,10,0,15,0c2.26,0,3.91,1.65,3.91,3.9c0,2.31-1.59,3.8-3.92,3.94
		c-7.86,0.49-15.73,0.09-23.59,0.2c-0.81,0.01-1.08,0.18-1.07,1.05c0.05,3.52,0.06,7.04,0,10.56c-0.01,0.89,0.29,1.01,1.08,1.01
		c7.2-0.03,14.4-0.02,21.59-0.02c2.16,0,3.73,1.4,3.75,3.32c0.03,3.06-1.09,4.34-3.69,4.52c-7.18,0.49-14.37,0.1-21.55,0.2
		c-0.92,0.01-1.2,0.2-1.19,1.17c0.06,4.08,0.06,8.16,0,12.24c-0.02,1.05,0.18,1.39,1.32,1.38c7.96-0.06,15.92-0.03,23.87-0.03
		c2.4,0,4.07,1.41,4.11,3.47c0.06,3.08-1.16,4.44-3.99,4.6c-9.5,0.53-19.01,0.16-28.51,0.17c-2.18,0-4.62,0.11-6.24-2.04
		c-0.83-1.1-1.05-2.36-1.06-3.61c-0.04-13.52-0.05-27.03-0.01-40.55c0.01-3.46,2-5.52,5.54-5.5
		C178.09,165.75,182.97,165.72,187.85,165.72z"/>
</g>
</svg>
