<svg baseProfile="tiny" xmlns="http://www.w3.org/2000/svg" viewBox="0 0 316.56 316.56"><path fill="#02ACEC" d="M316.92 166.68c-.58 2.16-.45 4.39-.66 6.59-3.17 32.9-15.38 62.03-36.58 87.36a155.8 155.8 0 01-46.27 37.56 155.54 155.54 0 01-60.04 18.04c-3.18.29-6.38.46-9.57.69h-10.32c-9.68-.46-19.28-1.49-28.74-3.62-33.48-7.54-61.72-24.08-84.53-49.69-19.65-22.07-32.38-47.7-37.29-76.84-8.1-48.1 3.07-91.49 34.11-129.23 23.42-28.48 53.55-46.7 89.77-53.79 48.55-9.51 92.67 1.1 131.38 32.02 28.38 22.67 46.44 52.16 54.78 87.55a151.99 151.99 0 013.73 26.43c.02.29-.15.66.24.85l-.01 16.08zM4.68 158.61c-.04 85 68.82 153.9 153.9 153.99 84.87.09 153.92-68.79 154.02-153.63.1-85.25-68.79-154.29-153.96-154.29C73.61 4.68 4.72 73.56 4.68 158.61z"/><path d="M4.68 158.61C4.72 73.56 73.61 4.68 158.64 4.68c85.17 0 154.06 69.04 153.96 154.29-.1 84.84-69.15 153.72-154.02 153.63-85.08-.09-153.94-68.99-153.9-153.99zm121.33-122.3l-.15-.21c.13-.78-.14-1.52-.81-1.81-.76-.33-1.49.21-2.15.61-.5.3-.58.96-.33 1.26.97 1.17.03 1.47-.74 1.87-.44.23-.67.64-1.01.95-1.09 1-2.4 2.22-3.85 1.58-1.39-.61-2.04-.01-3.01.59-1.37.84-2.68 1.89-4.11 2.51-1.91.83-4.08 1.04-6.14 1.52-3.06.71-5.78 2.44-8.98 2.83-2.06.25-3.79-.15-5.2-1.59-1.63-1.66-2.95-1.64-4.06.22-.32.53-.54 1.14-.95 1.6-.64.72-1.13 1.67-2.51 1.13-.94-.37-1.43.55-1.49 1.37-.28 4.22-.56 8.44-.72 12.66-.16 4.1-.17 8.2-.26 12.3-.02 1.18-1.79 2.74-2.95 2.66-.69-.05-1.26 0-1.66.78-.27.52-.59 1.17-1.59.98a1.86 1.86 0 00-1.93 1.05c-.24.52-.64.63-1.14.83-1.99.79-3.79 1.81-5.13 3.66-1.27 1.76-1.03 4.11-3.22 5.64-2.31 1.61-2.5 4.7-2.28 7.52.06.81.43 1.79 1.25 1.74 3.15-.18 4.11 2.07 5.18 4.29.13.28.31.56.54.75.71.62.61 1.33.22 2.02-.69 1.25-1.32 2.55-2.19 3.67-1.72 2.24-1.79 4.7-1.46 7.33.14 1.12.35 2.32-.81 3.27a2.03 2.03 0 00-.61 2.51c1.01 2.4 1.61 4.86.1 7.33-.22.35-.57.87-.24 1.2 1.16 1.18.15 2.22-.2 3.22-.49 1.39-.61 2.51.64 3.59 1.5 1.29 3.15 2.53 4.27 4.12 1.31 1.84 3.07 2.76 5.03 3.44 1.48.52 3.06.74 4.58 1.16.44.12.89.28 1 .98.29 1.86 1.21 3.38 3.03 4.09 2.87 1.12 5.81 2.07 8.21 4.12.67.57.97 1.24 1.26 2.08.63 1.83 1.2 3.72 2.32 5.35.94 1.38 2.31 2.32 3.58 3.35.57.47.86.77.11 1.49-2.17 2.1-4.23 4.33-6.32 6.51l-11.15 11.62c-.21.22-.46.41-.69.61-.05-.33-.14-.67-.14-1-.01-5.52.05-11.04-.04-16.56-.03-2.11-.28-4.36-2.53-5.4-4.63-2.13-8.21.14-8.19 5.26.06 14.22-.34 28.44.2 42.66.08 2.04 1.56 4 3.5 4.54a5.57 5.57 0 005.86-1.89c.92-1.28 1.12-2.73 1.16-4.18.08-3.24.05-6.48.01-9.72a2.3 2.3 0 01.79-1.86c2.35-2.22 4.66-4.47 6.98-6.72.37-.35.49-.66.97.08 4.57 7.16 9.21 14.27 13.84 21.38 2.15 3.3 4.79 3.41 8.24 2.62 1.09-.25 1.92-1.21 2.31-2.37.89-2.63-.28-4.86-1.66-6.87-4.61-6.75-9.34-13.42-14.06-20.1-1.64-2.32-1.68-2.29.32-4.23.72-.69 1.4-1.43 2.13-2.12 2.55-2.4 5.12-4.78 7.65-7.2.41-.39.56-.26.92.04 2.18 1.79 3.26 4.35 4.67 6.67 1.06 1.74 1.65 3.57 1.04 5.68-.23.81-.25 1.82.01 2.61 1.31 3.96.12 8.19 1.51 12.19.54 1.56.96 2.75 2.46 3.48 2.43 1.18 2.75 2.27 1.13 4.44a10.55 10.55 0 00-2.31 7.63c.18 1.96.81 3.93.29 5.93-.1.39.21.62.39.93.84 1.42 1.79 2.8 1.79 4.58 0 1.01-.02 2.12.38 3.01.81 1.78 2.03 3.21 4.15 3.67 1.37.3 2.63 1.04 3.99 1.37 1.6.39 3.47.24 4.6 1.61 1.03 1.25 1.57 2.91 2.09 4.4.41 1.16.91 1.4 1.8 1.44 2.94.13 5.88.01 8.82.2 4.93.32 9.88.2 14.82.21 18.94.04 37.88.36 56.82-.14 5.18-.14 10.36.01 15.54-.22 1.65-.07 1.96-.61 1.52-2.08-.25-.81-.3-1.7-.31-2.56-.02-3.1.77-6.09 1.35-9.11.12-.63.02-1.16-.39-1.48-2.1-1.65-2.58-3.86-2.42-6.35.08-1.22-.2-2.31-1.24-3.13-.75-.59-.88-1.3-.2-2.12.42-.51.78-1.31.42-1.84a4.54 4.54 0 01-.67-3.84c.06-.23-.12-.52-.2-.77-.45-1.4-.73-2.86-.45-4.29.13-.65-.49-1.95 1.1-1.94 5.72.03 11.44.03 17.16-.01.74 0 1.09.3 1.32.91 1.07 2.8 2.16 5.6 3.2 8.42 1.64 4.44 5.77 4.37 8.08 2.8 2.2-1.5 2.74-3.59 1.52-6.77-2.32-6.07-4.82-12.07-7.23-18.1-2.58-6.46-5.1-12.95-7.75-19.38-1-2.43-1.64-5.23-4.06-6.7-1.51-.91-1.53-1.99-1.77-3.49-.36-2.18-1.09-4.26-.61-6.53.73-3.5.99-7.17 2.66-10.38 1.31-2.5 2.62-5.03 3.18-7.73.43-2.07 1.67-3.43 2.89-4.79a6.9 6.9 0 001.75-4.76c.01-.43-.1-.94.11-1.28.7-1.11 1.37-2.3 2.29-3.21 1.55-1.54 2.08-3.42 2.21-5.45.05-.88-.93-2.05.94-2.09.17 0 .42-.3.47-.51.29-1.19.55-2.38.78-3.59.07-.36-.21-.52-.56-.63-3.43-1.04-4.86-.32-5.89 3.1-.48 1.59-1 2.91-3 2.98-.7.03-1.06.76-1.36 1.45-.55 1.28-.3 2.84-1.27 3.92-1.28 1.43-1.8 3.23-2.7 4.84-.66 1.18-.32 2.88-2.3 3.51-.88.28-1.8 1.21-2.88 1.28-.95.06-1.69.3-2.26 1.03-1.6 2.05-3.01 4.19-3.71 6.74-.28 1.02-.62 2.09-1.91 2.34-1.72.33-2.74 1.49-3.52 2.95-.26.48-.54.94-.79 1.41-.22.41-.5.61-.95.33-.4-.25-1.1-.05-1.2-.71-.09-.63.58-.38.86-.57.93-.62.85-1.44.15-1.89-.67-.43-.64-.95-.51-1.4.34-1.17.79-2.32 1.27-3.45 1.3-3.05 4.44-5.15 4.32-8.98-.04-1.25 1.67-.9 2.53-1.37 1.53-.84 3.97-.35 4.32-2.91.13-.93.08-1.9.27-2.81.29-1.37.61-2.6-1.51-2.48-.2.01-.52-.3-.6-.52-.29-.87-.96-1.43-1.59-2.02-.65-.61-.54-1.33-.27-1.97.82-1.98 1.31-4.07 2.21-6.02.47-1.01-.31-1.97-1.18-2.47-.74-.43-1.53-.23-2.22.49-.84.9-2.02 1.09-3.22 1.03-.21-.01-.68-.07-.49-.27 1.02-1.08-.32-2.82 1.21-3.79 1.48-.94 1.37-2.4.79-3.87-.08-.21-.48-.35-.1-.73 1.11-1.11.9-2.34.23-3.61-.15-.28-.63-.38-.43-.88.74-1.88.33-3.22-1.47-4.2-2.51-1.36-4.95-2.96-8.01-2.85-.54.02-1.53-.05-.57-1.2 1.55-1.85.86-4.12-1.36-5.25-2.53-1.28-5.6-.93-8-2.62-.11-.08-.35-.07-.47 0-1 .57-2.07.11-2.75-.34a3.85 3.85 0 00-3.27-.57c-1.55.48-2.81.24-4.33-.22-2.34-.7-4.91-.76-6.91-2.32a20.59 20.59 0 00-7.01-3.49c-9.89-2.82-19.81-5.55-29.77-8.13-1.76-.46-1.94-1.85-2.36-2.87-.76-1.85-.91-4.37-2.69-5.17-1.67-.75-2.78-3.25-5.2-2.13-.08.04-.25-.02-.33-.08-1.34-1.02-2.95-1.39-4.51-1.91a8.47 8.47 0 01-3.94-2.68c-1.18-1.43-3.53-1.9-3.97-.7-.56 1.5-1.55 1.97-2.88 2.25-.35.07-.68.22-1.01.33-.16-.49.07-.82.41-1.15.22-.21.32-.55.54-.74 1.12-.98 1.22-2.14.61-3.4-.5-1.03.29-1.59.86-2.04.19-.14.02.75.18 1.13.44 1.01 1.19 1 2.01.55.7-.39 1.24-1.16 2.11-1.14.83.02 1.16-.54 1.11-1.07-.07-.79.41-.94.9-1.08.88-.25 1.93-.47 1.97-1.49a2.2 2.2 0 00-1.51-2.15c-.09-.03-.16-.1-.24-.15l.32-.14c.68-.34 2.2.39 2.21 1.1.01.95.68 1.18 1.33 1.08.78-.12 1.69-.46 1.53-1.52-.12-.77-.72-1.16-1.57-1.1-.26.02-.57.61-.76.05-.11-.33-.18-.78.2-1.11.26-.23.48-.47.5-.89.07-1.28-.92-1.8-2.61-1.32-.43.12-1.05.78-1.07-.39 0-.19-.44-.47-.71-.52-.6-.12-.63-.27-.49-.89.18-.78 0-1.76-.92-2.05-.75-.24-1.34.08-1.46 1.06-.07.63-.39.02-.46-.06-.44-.53-.91-.75-1.52-.3-.73.54-.46 1.36-.31 1.97.14.55.69 1.1 1.47.85.2-.06.45-.38.57-.02.12.36-.26.31-.47.3-.65-.03-1.04.23-1.18.89-.18.86-.61.43-.82.07-.73-1.29-1.74-1.08-2.84-.48zm-48.54 229.5c-.02 1.69.93 2.63 2.28 3.31 1.43.72 2.76.51 3.85-.61a211.3 211.3 0 0011.98-13.4c1.07-1.32.6-2.82-.96-3.51-1.28-.56-2.14.06-2.93.95l-8.21 9.23c-.2.22-.37.64-.72.48-.12-.06-.07-.59-.01-.89l2.24-11.76c.31-1.61.11-3.01-1.49-3.93-1.54-.88-2.87-.61-4.17.51-3.03 2.6-6.09 5.18-9.15 7.75-.25.21-.46.67-.86.42-.11-.07.02-.59.11-.88 1.29-3.9 2.61-7.8 3.9-11.71.32-.97.5-1.96-.39-2.78-1.51-1.39-3.2-1.05-3.97.94a252.94 252.94 0 00-5.46 16.36c-.52 1.68-.23 3.07 1.27 4.11 1.59 1.1 3.12 1.07 4.61-.2l10.1-8.66c.26-.22.71-.61.84-.53.38.24.02.63-.04.95-.92 4.63-1.87 9.24-2.82 13.85zm167.72 2.18c2.37.03 3.58-1.88 2.47-3.9-1.8-3.29-3.66-6.55-5.5-9.83-.11-.19-.3-.5-.24-.59.21-.29.5-.05.75.05 1.67.67 3.31 1.4 5 2.02 3.63 1.35 7.18 2.94 11.02 3.63 1.68.3 3.05-.52 4.02-1.86.95-1.31.13-2.41-.62-3.48-3.07-4.39-6.12-8.78-9.2-13.16-1.12-1.58-2.2-1.85-3.53-.95-1.3.87-1.43 2.03-.38 3.63l5.98 9.12c.19.29.52.78.42.92-.29.42-.73.01-1.06-.1a153.77 153.77 0 01-14.94-5.8c-1.37-.62-2.57-.4-3.6.66-1.05 1.07-1 2.26-.33 3.52l7.73 14.75c.44.83 1.05 1.43 2.01 1.37zm-65.09.54l1.94 16.39c.25 2.11 1.14 2.95 2.95 2.69 1.68-.25 2.33-1.38 2.03-3.4-.54-3.51-1.05-7.02-1.56-10.53-.04-.25.03-.52.05-.79.22.14.47.26.66.44 2.45 2.29 4.86 4.62 7.35 6.88 1.48 1.34 3 2.64 4.6 3.83 1.45 1.07 3.09.99 4.65.15.96-.52 1.3-1.44 1.05-2.46-1.39-5.74-2.8-11.47-4.25-17.19-.34-1.32-1.2-2.06-2.68-1.69-1.49.38-1.97 1.36-1.67 2.8l2.33 11c.07.34.17.92.02 1.01-.43.26-.67-.26-.95-.5-4.01-3.38-7.8-6.98-11.44-10.74-.96-.99-2.07-1.32-3.37-.77-1.27.54-1.81 1.52-1.71 2.88zm-15.57 20.51c.6 0 1.2.06 1.8-.01 4.33-.49 8.06-2.04 9.72-6.43 3.35-8.83-3.77-17.07-13.27-15.79-8.34 1.12-11.32 7.94-9.99 14.52.98 4.85 5.43 7.77 11.74 7.71zm-48.76-6.42c1.01-.19 2.14-.29 3.2-.62a5.52 5.52 0 002.18-9.52c-.84-.78-1.84-1.4-2.8-2.04-2.03-1.34-4.39-2.14-6.2-3.82-.6-.56-1.09-1.21-.84-2.11.26-.92 1-1.29 1.85-1.5a5.62 5.62 0 016.51 3.71c.15.49.31 1 .57 1.44.57.96 1.52 1.15 2.51.91.94-.22 1.46-.87 1.51-1.91a4.7 4.7 0 00-1.48-3.67 13.12 13.12 0 00-10.94-3.81c-4.74.45-6.87 4.8-4.34 8.33 1.14 1.59 2.84 2.54 4.49 3.54 1.63.99 3.48 1.64 4.87 3.02 1.57 1.56 1.13 3.48-.93 4.23-2.26.82-6.09-.33-7.5-2.27-.74-1.02-.7-2.27-1.03-3.41-.43-1.48-1.54-2.01-2.96-1.81-1.46.21-1.8 1.37-1.72 2.6a6.1 6.1 0 001.27 3.43c2.96 3.83 7.25 4.66 11.78 5.28zm102.54-12.32c1.55.01 2.91-.07 3.67 1.37.57 1.07.22 2.02-.44 2.89a6.44 6.44 0 01-9.49.76c-.28-.28-.56-.59-.9-.78-1.19-.7-2.34-.5-3.28.45-.93.94-.65 1.98.09 2.92a6.55 6.55 0 003.43 2.3c4.38 1.23 11.57-1.07 14.41-4.62 2.35-2.94 1.82-6.96-1.14-8.64-1.79-1.02-3.75-.99-5.71-.81-2.26.2-4.52.47-6.79.58-1.03.05-2.15-.15-2.54-1.37-.41-1.24.35-2.07 1.22-2.76 2.28-1.81 4.7-1.84 7.02-.15.35.26.72.51 1.11.7 1 .48 1.9.2 2.61-.56s.73-1.65.18-2.54a4.9 4.9 0 00-3.58-2.17c-4.09-.65-7.66.72-10.81 3.17-2.21 1.72-2.86 4.1-2.08 6.28.8 2.23 2.7 3.37 5.61 3.51 2.56.13 5.08-.37 7.41-.53zm-79.76 13.79c-4.25-.03-6.9-2.48-6.86-6.45.02-1.85.39-3.66 1.25-5.32 1.19-2.28 2.94-3.71 5.68-3.72 2.78-.01 4.73 1.19 5.91 3.69.22.47.47.93.76 1.35.68 1.01 1.71 1.01 2.69.7.95-.3 1.3-1.1 1.19-2.1a4.94 4.94 0 00-1.11-2.61c-3.1-3.81-7.23-4.96-11.89-4.29-4.5.64-7.44 3.34-8.82 7.62-1.37 4.25-1 8.23 2.43 11.48 3.57 3.38 11.48 4.16 15.64 1.55a6.4 6.4 0 003.08-3.97c.34-1.44-.37-2.22-1.66-2.55-1.32-.33-2.2.27-2.82 1.44a5.57 5.57 0 01-5.47 3.18zm96.58-11.05c2.24.02 3.61-1.79 2.7-3.74-2.45-5.21-4.96-10.38-7.47-15.55-.68-1.41-1.83-1.87-3.28-1.2-1.44.66-1.73 1.88-1.15 3.21 2.31 5.31 4.68 10.6 7.03 15.89a2.14 2.14 0 002.17 1.39zm-131.35-15.85c-.17-1.34-.88-2.11-2.03-2.37-1.48-.34-2.34.52-2.88 1.77-2.21 5.09-4.4 10.19-6.6 15.29-.76 1.77-.28 3.04 1.36 3.7 1.68.67 2.93.12 3.63-1.63l6-15.15c.23-.57.38-1.15.52-1.61zm149.78-147.24c-.12.54.13.9.72 1.19 1.74.85 3.6.01 4.3-2.05.19-.57.31-1.1.87-1.5.59-.43.52-1.15.14-1.69-.47-.65-1.16-.59-1.78-.2-.33.2-.56.46-1.01.52-2.75.36-3.2.91-3.24 3.73zM141.22 30.64c-.57-.19-1.08.02-1.37.56a10.14 10.14 0 00-.95 4.14c-.09 1.26 1.01.84 1.64.61 1.44-.52 2.57-3.11 2.09-4.55-.23-.66-.66-.95-1.41-.76zm100.3 85.86c-.86-.05-1.45.2-1.4 1.18a2.43 2.43 0 002 2.41c.76.18 1.2-.37 1.11-1.14-.14-1.1-.15-2.34-1.71-2.45zM138.13 34.33c.06-.74-.35-1.1-1.2-1.1-.75 0-1.23.28-1.2 1.08.02.82.5 1.28 1.31 1.32.8.04 1.1-.44 1.09-1.3z"/><path fill="#FEFEFE" d="M126.01 36.31c1.1-.6 2.11-.81 2.88.52.21.36.63.78.82-.07.14-.65.53-.92 1.18-.89.21.01.59.06.47-.3s-.36-.04-.57.02c-.79.25-1.34-.3-1.47-.85-.15-.61-.43-1.43.31-1.97.61-.45 1.08-.23 1.52.3.07.08.39.69.46.06.11-.98.71-1.3 1.46-1.06.92.3 1.1 1.27.92 2.05-.14.63-.11.78.49.89.27.05.7.34.71.52.02 1.17.63.51 1.07.39 1.69-.47 2.67.04 2.61 1.32-.02.43-.23.67-.5.89-.38.33-.31.78-.2 1.11.19.56.5-.03.76-.05.85-.06 1.45.33 1.57 1.1.17 1.06-.75 1.4-1.53 1.52-.65.1-1.33-.13-1.33-1.08 0-.71-1.53-1.43-2.21-1.1l-.32.14c.08.05.15.12.24.15a2.2 2.2 0 011.51 2.15c-.03 1.01-1.09 1.24-1.97 1.49-.49.14-.97.29-.9 1.08.05.53-.28 1.09-1.11 1.07-.87-.02-1.41.75-2.11 1.14-.81.44-1.57.46-2.01-.55-.17-.38 0-1.28-.18-1.13-.58.45-1.36 1.01-.86 2.04.61 1.26.52 2.42-.61 3.4-.23.2-.33.53-.54.74-.34.33-.57.66-.41 1.15.34-.11.67-.26 1.01-.33 1.33-.28 2.32-.75 2.88-2.25.45-1.2 2.79-.73 3.97.7a8.42 8.42 0 003.94 2.68c1.56.51 3.17.89 4.51 1.91.09.07.25.12.33.08 2.43-1.12 3.54 1.38 5.2 2.13 1.78.8 1.94 3.32 2.69 5.17.42 1.02.6 2.41 2.36 2.87 9.96 2.58 19.88 5.31 29.77 8.13 2.51.71 4.89 1.83 7.01 3.49 2 1.56 4.58 1.63 6.91 2.32 1.52.45 2.78.7 4.33.22a3.85 3.85 0 013.27.57c.68.44 1.75.9 2.75.34.12-.07.36-.08.47 0 2.4 1.69 5.47 1.33 8 2.62 2.22 1.13 2.91 3.4 1.36 5.25-.96 1.15.02 1.22.57 1.2 3.07-.11 5.5 1.49 8.01 2.85 1.81.98 2.22 2.32 1.47 4.2-.2.5.28.6.43.88.67 1.27.88 2.5-.23 3.61-.38.38.02.52.1.73.58 1.48.69 2.93-.79 3.87-1.53.97-.19 2.71-1.21 3.79-.19.2.28.25.49.27 1.2.06 2.37-.13 3.22-1.03.68-.72 1.48-.92 2.22-.49.87.5 1.65 1.46 1.18 2.47-.9 1.96-1.4 4.05-2.21 6.02-.26.63-.37 1.36.27 1.97.63.58 1.3 1.14 1.59 2.02.07.22.4.53.6.52 2.12-.12 1.8 1.12 1.51 2.48-.2.91-.15 1.88-.27 2.81-.35 2.56-2.79 2.07-4.32 2.91-.86.47-2.57.11-2.53 1.37.12 3.83-3.02 5.94-4.32 8.98a30.33 30.33 0 00-1.27 3.45c-.13.45-.15.96.51 1.4.7.46.79 1.27-.15 1.89-.29.19-.95-.06-.86.57.1.66.8.46 1.2.71.44.27.73.08.95-.33.25-.48.54-.94.79-1.41.78-1.45 1.8-2.61 3.52-2.95 1.28-.25 1.63-1.32 1.91-2.34.7-2.55 2.11-4.69 3.71-6.74.57-.73 1.31-.98 2.26-1.03 1.08-.06 2-1 2.88-1.28 1.98-.63 1.65-2.33 2.3-3.51.89-1.61 1.42-3.41 2.7-4.84.97-1.08.72-2.64 1.27-3.92.3-.69.66-1.43 1.36-1.45 2-.07 2.52-1.4 3-2.98 1.03-3.42 2.46-4.14 5.89-3.1.35.11.63.27.56.63a63.8 63.8 0 01-.78 3.59c-.05.2-.3.5-.47.51-1.87.04-.89 1.21-.94 2.09-.12 2.03-.66 3.91-2.21 5.45-.92.92-1.59 2.1-2.29 3.21-.22.34-.1.85-.11 1.28a6.92 6.92 0 01-1.75 4.76c-1.21 1.36-2.46 2.71-2.89 4.79-.56 2.7-1.88 5.23-3.18 7.73-1.67 3.2-1.93 6.87-2.66 10.38-.47 2.27.25 4.35.61 6.53.25 1.5.27 2.58 1.77 3.49 2.42 1.47 3.06 4.26 4.06 6.7 2.64 6.44 5.16 12.92 7.75 19.38 2.41 6.03 4.92 12.03 7.23 18.1 1.22 3.19.68 5.27-1.52 6.77-2.31 1.57-6.45 1.64-8.08-2.8-1.04-2.82-2.13-5.61-3.2-8.42-.23-.61-.59-.92-1.32-.91-5.72.03-11.44.04-17.16.01-1.6-.01-.97 1.29-1.1 1.94-.29 1.43 0 2.89.45 4.29.08.26.25.54.2.77a4.5 4.5 0 00.67 3.84c.36.53.01 1.33-.42 1.84-.68.82-.55 1.53.2 2.12 1.04.82 1.32 1.91 1.24 3.13-.16 2.49.32 4.71 2.42 6.35.41.32.51.85.39 1.48-.58 3.02-1.37 6.01-1.35 9.11.01.86.06 1.75.31 2.56.44 1.46.14 2.01-1.52 2.08-5.18.23-10.36.08-15.54.22-18.94.5-37.88.18-56.82.14-4.93-.01-9.89.11-14.82-.21-2.95-.19-5.89-.07-8.82-.2-.9-.04-1.4-.28-1.8-1.44-.52-1.49-1.06-3.16-2.09-4.4-1.13-1.37-2.99-1.22-4.6-1.61-1.36-.33-2.63-1.07-3.99-1.37-2.12-.46-3.34-1.89-4.15-3.67-.4-.88-.38-2-.38-3.01 0-1.78-.95-3.16-1.79-4.58-.18-.3-.49-.54-.39-.93.52-2.01-.11-3.97-.29-5.93-.26-2.91.59-5.33 2.31-7.63 1.63-2.17 1.3-3.26-1.13-4.44-1.5-.73-1.92-1.92-2.46-3.48-1.39-4-.2-8.23-1.51-12.19a4.63 4.63 0 01-.01-2.61c.6-2.11.02-3.94-1.04-5.68-1.41-2.32-2.49-4.88-4.67-6.67-.36-.3-.51-.43-.92-.04-2.53 2.42-5.1 4.8-7.65 7.2-.73.69-1.41 1.42-2.13 2.12-2 1.93-1.96 1.9-.32 4.23 4.72 6.68 9.45 13.35 14.06 20.1 1.37 2.01 2.54 4.24 1.66 6.87-.39 1.16-1.22 2.12-2.31 2.37-3.45.79-6.09.68-8.24-2.62-4.64-7.11-9.28-14.22-13.84-21.38-.47-.74-.6-.44-.97-.08-2.32 2.25-4.64 4.5-6.98 6.72a2.3 2.3 0 00-.79 1.86c.05 3.24.08 6.48-.01 9.72-.04 1.45-.24 2.91-1.16 4.18a5.55 5.55 0 01-5.86 1.89 5 5 0 01-3.5-4.54c-.54-14.22-.14-28.44-.2-42.66-.02-5.12 3.56-7.38 8.19-5.26 2.25 1.04 2.5 3.29 2.53 5.4.09 5.52.03 11.04.04 16.56 0 .33.09.67.14 1 .23-.2.48-.39.69-.61l11.15-11.62c2.09-2.18 4.15-4.41 6.32-6.51.74-.72.46-1.02-.11-1.49-1.27-1.04-2.63-1.97-3.58-3.35-1.12-1.63-1.69-3.51-2.32-5.35a4.27 4.27 0 00-1.26-2.08c-2.4-2.05-5.34-3-8.21-4.12-1.82-.71-2.74-2.23-3.03-4.09-.11-.69-.56-.85-1-.98-1.52-.42-3.1-.64-4.58-1.16-1.95-.68-3.72-1.6-5.03-3.44-1.13-1.59-2.77-2.83-4.27-4.12-1.25-1.07-1.14-2.2-.64-3.59.35-.99 1.36-2.04.2-3.22-.32-.33.03-.84.24-1.2 1.52-2.47.92-4.93-.1-7.33a2.03 2.03 0 01.61-2.51c1.17-.95.96-2.15.81-3.27-.34-2.63-.27-5.09 1.46-7.33.86-1.12 1.5-2.43 2.19-3.67.39-.69.48-1.4-.22-2.02-.23-.2-.4-.48-.54-.75-1.07-2.22-2.03-4.47-5.18-4.29-.82.05-1.19-.93-1.25-1.74-.21-2.81-.02-5.9 2.28-7.52 2.19-1.53 1.95-3.89 3.22-5.64 1.33-1.85 3.14-2.87 5.13-3.66.51-.2.9-.31 1.14-.83a1.84 1.84 0 011.93-1.05c1 .19 1.32-.45 1.59-.98.4-.77.97-.83 1.66-.78 1.16.09 2.92-1.48 2.95-2.66.09-4.1.1-8.2.26-12.3.16-4.22.44-8.44.72-12.66.06-.82.55-1.74 1.49-1.37 1.38.54 1.87-.41 2.51-1.13.4-.46.63-1.07.95-1.6 1.11-1.86 2.43-1.88 4.06-.22 1.41 1.44 3.15 1.84 5.2 1.59 3.19-.39 5.91-2.12 8.98-2.83 2.06-.48 4.23-.69 6.14-1.52 1.43-.62 2.73-1.67 4.11-2.51.97-.6 1.62-1.2 3.01-.59 1.45.64 2.76-.58 3.85-1.58.34-.31.57-.73 1.01-.95.77-.39 1.71-.7.74-1.87-.25-.31-.17-.96.33-1.26.66-.4 1.39-.93 2.15-.61.67.29.93 1.02.81 1.81-.23.07-.26.22-.17.42.07-.11.18-.18.28-.25zm123.81 81.7a4.1 4.1 0 00-1.31 1.63c-.19.52-.77.78-1.11.67-1.59-.51-1.36.76-1.5 1.51-.21 1.1-.37 2.35-1.15 3.05-1.75 1.57-2.39 3.66-2.94 5.73-.3 1.13-.01 2.71 1.14 3.35 1.2.67 1.07-1.03 1.71-1.47.06-.04.11-.12.17-.17 1.35-.96 1.58-2.38 1.51-3.88a3.7 3.7 0 01.79-2.61c.98-1.06 1.26-2.47 2.16-3.56.39-.47.76-1.28.62-1.81a3.63 3.63 0 01.06-2.26c1.85-.36.49-1.53.6-2.33-.17.77-.18 1.56-.75 2.15zm-31.2 125c4.02-.03 6.89.06 9.75-.23.55-.06.84-.15.72-.73-.54-2.56-.1-5.05.46-7.55.46-2.04.81-4.1-1.09-5.78-.46-.41-.7-1.23-.77-1.89a21.75 21.75 0 00-1.9-7.26c-.73-1.53.19-4.05-.48-6.12-.12-.38.62-.79.34-1.38-.69-1.47-.67-3.04-.64-4.62 0-.19.18-.49-.15-.57-.06-.01-.22.27-.29.44-.74 2.02-1.39 4.08-2.24 6.06-.66 1.54-1.06 3.32-2.59 4.31-1.45.93-4.52.62-5.87-.45-1.75-1.38-2.34-3.19-1.64-5.5 1.46-4.82 3.55-9.42 5.37-14.11 3.46-8.97 7.07-17.88 10.53-26.84 1.52-3.93 3.7-5.87 7.24-5.77 1.5.04 1.63-.91 1.34-1.77a14.32 14.32 0 01-.67-7.25c.61-3.34 1.09-6.74 2.31-9.91 1.07-2.78 2.8-5.29 3.58-8.21.11-.42.44-.97-.17-1.19-.82-.3-1.13-1.02-1.65-1.58-.38-.41-.42-1.65-1.35-.94-.58.45-1.5.24-1.82 1.01-.43 1.04-1.26.94-2.09.75-.34-.08-.64-.36-.89.09-.97 1.78-2.34 3.34-2.75 5.43-.26 1.3-.86 2.72-2.22 3.1-2.24.62-3.32 2.19-4.24 4.1-.71 1.47-2.57 1.66-4.55.62-1.47-.77-1.85-1.92-1.17-3.38.21-.45.46-.95.44-1.41-.13-3.88 2.26-6.69 4.04-9.76.65-1.12 1.55-2.05 1.54-3.52-.02-1.69.54-3.02 2.61-3.21a6.84 6.84 0 002.92-.98c.5-.31 1.69-.1 1.43-1.4-.15-.73.32-2.13.1-2.22-1.45-.6-1.78-2.09-2.76-3.01a4.44 4.44 0 01-.9-4.79c.69-1.57 1.24-3.2 1.85-4.81.06-.15.05-.32.08-.49-.14.07-.31.1-.4.2-1.3 1.45-3.15 1.19-4.79 1.41-.85.11-1.76-.57-2.21-1.25-.43-.66-.12-1.54.55-2.11.33-.28.41-.68.26-.97-.58-1.11-.02-2.03.71-2.59 1.52-1.17 1.19-2.24.24-3.52-.67-.92-.37-1.71.75-1.96.84-.18.52-.5.23-.86-.84-1.04-1.63-2.09-.62-3.46.2-.27-.05-.35-.17-.43-2.35-1.74-4.89-2.99-7.87-3.21-1.19-.08-2.04-.8-2.67-1.82-.53-.86.05-1.43.44-2 1.04-1.47.7-2.57-1.06-3.12-.8-.25-1.64-.38-2.45-.63-1.49-.45-3.01-.76-4.5-1.2-1.31-.38-2.71-.53-4.01-1.07-.86-.36-1.75-.53-2.46.33-.28.34-.67.32-1.04.43-1.34.38-1.94-1.11-2.93-1.17-2.34-.13-4.5-.48-6.48-1.88a27.52 27.52 0 00-8.55-4.26c-9.02-2.51-18.04-5.04-27.13-7.28-3.14-.78-4.99-2.19-5.6-5.41-.24-1.26-.72-2.71-1.86-3.5-2.09-1.45-4.75-1.57-6.99-2.77-2.46-1.32-5.3-1.93-7.46-3.89-.27-.24-.85-.26-1.12.03-1.32 1.48-3.35 1.55-4.92 2.52-.72.44-1.6.43-2.36.03-.67-.35-.57-1.16-.37-1.61.51-1.15.78-2.42 1.67-3.42.42-.48 1.23-.91.74-1.86-.63-1.21-.31-2.32.46-3.38.75-1.03 1.81-1.85 2.19-3.15.24-.82.54-1.94-.11-2.35-.58-.36-1.38-.84-2.48-.44-1.47.55-2.96.68-4.07 2.12a4.7 4.7 0 01-2.85 1.64c-1.19.21-2.64-.37-3.38.11-1.36.86-3.07 1.17-4.13 2.5-.3.38-.71.59-1.19.69-2.04.44-4.09.83-6.11 1.34-3.15.8-5.99 2.76-9.33 2.82-2.42.05-5.27 1.28-6.81-1.94-.11-.24-.41-.68-.71-.48-.24.15-.31.59-.22 1 .22 1.08.03 1.73-1.37 1.89-1.1.13-1.9 1.49-3.26 1.19-.04.19-.1.37-.11.56-.24 3.74-.55 7.48-.71 11.22-.16 3.78-.44 7.58-.16 11.33.19 2.51-1.07 4.2-2.58 5.36-1.15.88-2.85 1.27-4.25 2.08-.72.42-1.9.07-2.39 1.18-.07.15-.29.3-.46.34-3.52.75-5.41 3.07-6.34 6.42-.24.86-.55 1.92-1.39 2.35-1.6.81-2.13 2.2-2.52 3.77-.47 1.87-.08 2.51 1.8 2.85 1.67.3 3.12.72 3.33 2.86.08.8.74 1.62 1.3 2.28.99 1.17 1.32 2.46.71 3.8a31.56 31.56 0 01-2.69 4.82c-1.22 1.76-1.19 3.59-1 5.57.13 1.37.54 2.89-.48 4.09-.61.72-.84 1.11-.52 2.24.98 3.46.43 7-.15 10.52-.19 1.15-1.97 2.45.1 3.63 1.4.79 2.3 2.18 3.5 3.22.62.54.78 1.39 1.51 1.87a15.33 15.33 0 005.67 2.19c1.66.32 3.69.55 4.09 2.76.26 1.41.93 2.38 2.19 2.94 2.37 1.07 4.96 1.6 7.09 3.29 1.3 1.03 2.83 1.85 3.19 3.56.4 1.88 1.45 3.44 2.13 5.17.55 1.41 2.19 1.88 3.05 3.08.63.87 1.22.99 1.95.05 1.17-1.51 2.71-2.06 4.65-1.98 1.93.08 3.42.73 4.33 2.42a4.56 4.56 0 01-.31 4.87c-.46.71-.36.99.12 1.58 3.44 4.23 6.7 8.3 6.16 14.52-.31 3.54.13 7.39.87 10.98.37 1.79-.06 4.52 2.89 5.02.28.05.54.24.81.36.01-.36.08-.73.02-1.08a4.5 4.5 0 014.39-5.29c2.52-.07 4.23 1.48 5.46 4.84.79 2.16 1.85 4.22 3.85 5.45 4.16 2.57 8.5 2.36 12.8.3 3.31-1.58 4.77-4.43 3.71-7.85-.93-3.01-3.62-4.17-6.41-5-4.44-1.31-9.04-2.06-13.36-3.83-3.53-1.44-6.86-3.39-8.32-6.95-3.22-7.86-.33-15.73 8.32-18.88 5.19-1.89 10.57-2.02 15.9-.93 6.12 1.25 10.95 4.21 12.4 10.92a5.1 5.1 0 01-3.17 5.83c-2.08.81-4.34-.13-5.52-2.32-1.22-2.27-2.4-4.6-4.58-6.13-2.8-1.97-8.98-1.68-12.2.43-2.51 1.64-3.71 5.22-.75 7.71 1.11.93 2.39 1.55 3.75 2 4.9 1.62 10.05 2.37 14.85 4.33 3.71 1.52 7.22 3.49 8.77 7.41 3.18 8.03.19 17.22-8.95 20.8-5.6 2.2-11.41 2.19-17.19 1.14-4.62-.84-8.57-3.07-11.26-7.13-.53-.8-1.16-2.67-1.81-.03-.03.14-.22.23-.3.36-.76 1.3-2.13 2.44-2.21 3.89-.18 3.53-.39 7.12 1.34 10.45a9.47 9.47 0 011.04 4.01c.05 1.06-.2 2.36.76 3.21 1.94 1.7 4.36 2.38 6.81 2.91 2.93.64 5.77 1.2 6.46 4.95.15.8.63 2.39 2.1 2.48 2.54.15 5.08.06 7.62.2 5.33.28 10.68.22 16.02.23 20.48.08 40.98.34 60.32-.14zm18.03-45.85c1.92 0 3.84-.04 5.76.02.86.03.89-.23.61-.91-.52-1.28-.97-2.59-1.45-3.89l-5.74-15.59c-.05-.14-.08-.29-.12-.44-.05.12-.12.23-.16.36-1.33 3.63-3.15 7.15-2.63 11.22a3.8 3.8 0 01-.92 2.81c-1.31 1.62-1.66 3.53-1.95 5.49-.1.67.04.99.86.96 1.9-.08 3.83-.03 5.74-.03zM131.85 39.81c-.27-.18-.38-.3-.49-.31-.14-.01-.28.07-.42.12.07.11.12.31.2.32.16.02.34-.06.71-.13zm1.23 1.68c-.17-.04-.29-.1-.38-.08-.12.03-.3.13-.31.22-.03.25.11.2.26.09.12-.08.25-.14.43-.23zm1.5-1.4c-.19-.07-.3-.14-.35-.11-.08.04-.13.14-.17.23-.01.02.13.14.17.13.1-.04.18-.13.35-.25z"/><path fill="#A21D1D" d="M77.47 265.81l2.83-13.83c.06-.32.42-.71.04-.95-.12-.08-.58.31-.84.53l-10.1 8.66c-1.48 1.27-3.02 1.29-4.61.2-1.5-1.04-1.79-2.43-1.27-4.11 1.69-5.5 3.4-10.99 5.46-16.36.76-1.99 2.46-2.33 3.97-.94.89.82.71 1.8.39 2.78-1.29 3.91-2.6 7.8-3.9 11.71-.1.29-.22.81-.11.88.39.25.61-.21.86-.42 3.06-2.57 6.11-5.15 9.15-7.75 1.3-1.12 2.63-1.39 4.17-.51 1.6.92 1.8 2.31 1.49 3.93l-2.24 11.76c-.06.3-.11.83.01.89.35.16.52-.26.72-.48l8.21-9.23c.79-.89 1.66-1.51 2.93-.95 1.56.69 2.04 2.19.96 3.51a211.3 211.3 0 01-11.98 13.4c-1.08 1.12-2.42 1.33-3.85.61-1.36-.7-2.3-1.64-2.29-3.33zM245.19 267.99c-.96.06-1.57-.54-2-1.36l-7.73-14.75c-.66-1.26-.72-2.45.33-3.52a2.94 2.94 0 013.6-.66c4.87 2.21 9.86 4.11 14.94 5.8.33.11.76.52 1.06.1.1-.14-.23-.63-.42-.92l-5.98-9.12c-1.05-1.6-.92-2.76.38-3.63 1.33-.9 2.42-.63 3.53.95 3.08 4.38 6.14 8.77 9.2 13.16.75 1.07 1.57 2.17.62 3.48-.97 1.34-2.34 2.16-4.02 1.86-3.83-.69-7.39-2.28-11.02-3.63-1.68-.63-3.33-1.35-5-2.02-.24-.1-.53-.34-.75-.05-.07.09.13.4.24.59 1.83 3.28 3.7 6.54 5.5 9.83 1.1 2.01-.11 3.92-2.48 3.89zM180.1 268.53c-.09-1.36.44-2.34 1.71-2.88 1.3-.56 2.41-.22 3.37.77 3.65 3.76 7.44 7.37 11.44 10.74.28.24.51.76.95.5.15-.09.05-.67-.02-1.01l-2.33-11c-.31-1.44.18-2.43 1.67-2.8 1.48-.37 2.34.37 2.68 1.69 1.45 5.72 2.86 11.45 4.25 17.19.25 1.02-.1 1.95-1.05 2.46-1.56.84-3.19.93-4.65-.15a55.9 55.9 0 01-4.6-3.83c-2.48-2.26-4.9-4.59-7.35-6.88-.19-.18-.44-.29-.66-.44-.02.26-.08.53-.05.79.51 3.51 1.02 7.02 1.56 10.53.31 2.02-.35 3.15-2.03 3.4-1.81.26-2.71-.57-2.95-2.69l-1.94-16.39zM164.53 289.04c-6.3.06-10.76-2.86-11.74-7.71-1.33-6.58 1.64-13.39 9.99-14.52 9.5-1.28 16.62 6.96 13.27 15.79-1.67 4.39-5.39 5.94-9.72 6.43-.6.07-1.2.01-1.8.01zm.02-3.32c4.37.01 7.16-2.87 7.15-7.36-.01-4.93-2.84-8.2-7.11-8.22-4.23-.02-7.04 3.15-7.05 7.96 0 4.71 2.66 7.61 7.01 7.62zM115.77 282.62c-4.52-.62-8.81-1.46-11.79-5.25a6.12 6.12 0 01-1.27-3.43c-.08-1.23.26-2.39 1.72-2.6 1.42-.2 2.53.32 2.96 1.81.33 1.14.29 2.39 1.03 3.41 1.41 1.93 5.24 3.09 7.5 2.27 2.06-.75 2.5-2.68.93-4.23-1.39-1.38-3.24-2.03-4.87-3.02-1.64-1-3.35-1.94-4.49-3.54-2.53-3.54-.4-7.88 4.34-8.33 4.1-.39 7.92.77 10.94 3.81a4.76 4.76 0 011.48 3.67c-.05 1.03-.56 1.68-1.51 1.91-.99.23-1.94.05-2.51-.91a6.65 6.65 0 01-.57-1.44 5.63 5.63 0 00-6.51-3.71c-.86.21-1.59.58-1.85 1.5-.25.9.23 1.54.84 2.11 1.81 1.69 4.17 2.49 6.2 3.82.96.64 1.96 1.26 2.8 2.04a5.52 5.52 0 01-2.18 9.52c-1.05.31-2.18.4-3.19.59zM218.31 270.3c-2.33.16-4.85.66-7.42.54-2.91-.14-4.8-1.28-5.61-3.51-.79-2.18-.13-4.56 2.08-6.28 3.15-2.45 6.72-3.82 10.81-3.17 1.46.23 2.75.85 3.58 2.17.56.88.53 1.77-.18 2.54-.71.76-1.61 1.04-2.61.56a7.14 7.14 0 01-1.11-.7c-2.32-1.69-4.74-1.66-7.02.15-.86.69-1.62 1.52-1.22 2.76.4 1.22 1.51 1.42 2.54 1.37 2.27-.11 4.53-.38 6.79-.58 1.97-.18 3.92-.2 5.71.81 2.96 1.68 3.49 5.7 1.14 8.64-2.84 3.55-10.03 5.85-14.41 4.62a6.53 6.53 0 01-3.43-2.3c-.74-.94-1.02-1.97-.09-2.92a2.51 2.51 0 013.28-.45c.34.2.62.5.9.78a6.45 6.45 0 009.49-.76c.66-.87 1.01-1.82.44-2.89-.75-1.44-2.11-1.37-3.66-1.38zM138.55 284.09a5.54 5.54 0 005.47-3.17c.62-1.17 1.5-1.78 2.82-1.44 1.29.32 2 1.11 1.66 2.55a6.46 6.46 0 01-3.08 3.97c-4.15 2.61-12.07 1.83-15.64-1.55-3.43-3.24-3.8-7.23-2.43-11.48 1.38-4.28 4.32-6.98 8.82-7.62 4.67-.67 8.79.49 11.89 4.29.61.75 1 1.62 1.11 2.61.11 1-.24 1.8-1.19 2.1-.98.31-2.01.3-2.69-.7-.29-.43-.54-.89-.76-1.35-1.18-2.5-3.13-3.7-5.91-3.69-2.74.01-4.49 1.44-5.68 3.72a11.56 11.56 0 00-1.25 5.32c-.04 3.95 2.61 6.41 6.86 6.44zM235.13 273.04a2.14 2.14 0 01-2.17-1.39c-2.35-5.29-4.72-10.58-7.03-15.89-.58-1.34-.29-2.55 1.15-3.21 1.45-.67 2.6-.21 3.28 1.2 2.51 5.17 5.03 10.35 7.47 15.55.91 1.94-.46 3.76-2.7 3.74zM103.78 257.19c-.15.47-.29 1.05-.51 1.6a4759.8 4759.8 0 01-6 15.15c-.7 1.75-1.95 2.31-3.63 1.63-1.64-.66-2.12-1.93-1.36-3.7 2.19-5.1 4.39-10.2 6.6-15.29.54-1.25 1.4-2.1 2.88-1.77 1.14.27 1.85 1.03 2.02 2.38z"/><path fill="#FEFEFE" d="M253.56 109.95c.04-2.82.5-3.37 3.24-3.73.45-.06.68-.32 1.01-.52.62-.39 1.31-.45 1.78.2.39.54.45 1.26-.14 1.69-.56.41-.67.93-.87 1.5-.7 2.07-2.56 2.9-4.3 2.05-.59-.29-.84-.65-.72-1.19zm2.83-1.67l-.56.18c.16.05.32.13.48.12.12-.01.32-.12.33-.2.03-.27-.13-.2-.25-.1zM141.22 30.64c.76-.19 1.18.11 1.41.77.48 1.44-.66 4.03-2.09 4.55-.63.23-1.73.64-1.64-.61.1-1.4.26-2.85.95-4.14.29-.56.8-.77 1.37-.57zM241.52 116.5c1.56.11 1.57 1.35 1.7 2.44.1.77-.34 1.32-1.11 1.14a2.43 2.43 0 01-2-2.41c-.04-.96.55-1.21 1.41-1.17zM138.13 34.33c.02.86-.29 1.34-1.09 1.3-.81-.04-1.29-.5-1.31-1.32-.02-.8.45-1.07 1.2-1.08.85 0 1.25.36 1.2 1.1z"/><path d="M218.62 243.01c-19.34.48-39.84.22-60.34.16-5.34-.01-10.69.04-16.02-.23-2.55-.13-5.09-.04-7.62-.2-1.48-.09-1.96-1.68-2.1-2.48-.69-3.75-3.53-4.31-6.46-4.95-2.45-.53-4.87-1.21-6.81-2.91-.96-.84-.71-2.14-.76-3.21a9.43 9.43 0 00-1.04-4.01c-1.73-3.32-1.52-6.92-1.34-10.45.08-1.45 1.45-2.59 2.21-3.89.08-.13.27-.22.3-.36.65-2.64 1.28-.77 1.81.03 2.69 4.07 6.65 6.29 11.26 7.13 5.78 1.05 11.59 1.06 17.19-1.14 9.14-3.59 12.13-12.77 8.95-20.8-1.55-3.91-5.05-5.89-8.77-7.41-4.8-1.96-9.95-2.71-14.85-4.33a11.32 11.32 0 01-3.75-2c-2.96-2.48-1.76-6.06.75-7.71 3.22-2.11 9.4-2.4 12.2-.43 2.18 1.53 3.36 3.86 4.58 6.13 1.18 2.2 3.44 3.13 5.52 2.32a5.1 5.1 0 003.17-5.83c-1.45-6.71-6.28-9.67-12.4-10.92-5.33-1.09-10.71-.96-15.9.93-8.65 3.15-11.54 11.01-8.32 18.88 1.46 3.56 4.79 5.51 8.32 6.95 4.32 1.77 8.91 2.52 13.36 3.83 2.79.82 5.48 1.99 6.41 5 1.05 3.41-.41 6.26-3.71 7.85-4.3 2.06-8.64 2.27-12.8-.3-1.99-1.23-3.06-3.29-3.85-5.45-1.23-3.37-2.93-4.91-5.46-4.84a4.52 4.52 0 00-4.39 5.29c.06.35-.01.72-.02 1.08-.27-.12-.53-.32-.81-.36-2.95-.5-2.52-3.23-2.89-5.02a38.97 38.97 0 01-.87-10.98c.54-6.22-2.72-10.29-6.16-14.52-.48-.59-.58-.87-.12-1.58a4.58 4.58 0 00.31-4.87c-.91-1.69-2.4-2.34-4.33-2.42-1.94-.08-3.48.47-4.65 1.98-.73.94-1.32.83-1.95-.05-.86-1.19-2.5-1.66-3.05-3.08-.68-1.73-1.73-3.29-2.13-5.17-.36-1.71-1.9-2.53-3.19-3.56-2.12-1.68-4.72-2.22-7.09-3.29a3.7 3.7 0 01-2.19-2.94c-.41-2.21-2.43-2.43-4.09-2.76a15.33 15.33 0 01-5.67-2.19c-.74-.48-.89-1.34-1.51-1.87-1.2-1.04-2.1-2.42-3.5-3.22-2.07-1.18-.29-2.48-.1-3.63.58-3.52 1.13-7.06.15-10.52-.32-1.13-.09-1.52.52-2.24 1.02-1.21.61-2.72.48-4.09-.19-1.98-.22-3.81 1-5.57a30.73 30.73 0 002.69-4.82c.61-1.33.28-2.63-.71-3.8-.56-.66-1.22-1.48-1.3-2.28-.21-2.14-1.66-2.56-3.33-2.86-1.88-.33-2.26-.98-1.8-2.85.39-1.56.92-2.95 2.52-3.77.84-.43 1.15-1.48 1.39-2.35.93-3.35 2.82-5.67 6.34-6.42.17-.04.39-.19.46-.34.49-1.12 1.68-.77 2.39-1.18 1.4-.81 3.11-1.2 4.25-2.08 1.51-1.16 2.77-2.86 2.58-5.36-.28-3.75 0-7.56.16-11.33.16-3.74.46-7.48.71-11.22.01-.19.07-.37.11-.56 1.36.29 2.16-1.06 3.26-1.19 1.4-.16 1.59-.82 1.37-1.89-.08-.41-.02-.85.22-1 .3-.19.6.24.71.48 1.54 3.22 4.39 1.99 6.81 1.94 3.35-.06 6.18-2.02 9.33-2.82 2.02-.51 4.07-.9 6.11-1.34.47-.1.89-.31 1.19-.69 1.06-1.33 2.77-1.64 4.13-2.5.75-.47 2.2.1 3.38-.11a4.8 4.8 0 002.85-1.64c1.12-1.43 2.6-1.57 4.07-2.12 1.1-.41 1.9.08 2.48.44.65.4.35 1.53.11 2.35-.38 1.29-1.44 2.11-2.19 3.15-.77 1.06-1.09 2.18-.46 3.38.5.95-.32 1.38-.74 1.86-.88 1-1.16 2.27-1.67 3.42-.2.45-.3 1.26.37 1.61.76.4 1.64.42 2.36-.03 1.58-.96 3.6-1.04 4.92-2.52.26-.3.85-.27 1.12-.03 2.15 1.95 4.99 2.56 7.46 3.89 2.25 1.21 4.9 1.32 6.99 2.77 1.13.79 1.62 2.23 1.86 3.5.6 3.23 2.45 4.64 5.6 5.41 9.09 2.25 18.11 4.77 27.13 7.28 3.1.86 5.93 2.4 8.55 4.26 1.98 1.41 4.14 1.76 6.48 1.88.99.05 1.59 1.55 2.93 1.17.38-.11.76-.08 1.04-.43.71-.86 1.6-.69 2.46-.33 1.3.55 2.7.69 4.01 1.07 1.49.44 3.02.74 4.5 1.2.81.25 1.65.38 2.45.63 1.77.55 2.1 1.65 1.06 3.12-.4.56-.97 1.14-.44 2 .63 1.03 1.48 1.74 2.67 1.82 2.99.21 5.52 1.47 7.87 3.21.12.09.37.16.17.43-1.02 1.37-.22 2.41.62 3.46.29.36.61.68-.23.86-1.12.24-1.42 1.04-.75 1.96.94 1.29 1.28 2.35-.24 3.52-.73.56-1.29 1.48-.71 2.59.15.29.07.69-.26.97-.67.57-.99 1.46-.55 2.11.45.69 1.36 1.36 2.21 1.25 1.64-.22 3.49.04 4.79-1.41.09-.1.27-.14.4-.2-.02.16-.02.34-.08.49-.6 1.61-1.15 3.24-1.85 4.81a4.46 4.46 0 00.9 4.79c.98.92 1.32 2.42 2.76 3.01.22.09-.25 1.49-.1 2.22.26 1.3-.93 1.1-1.43 1.4-.86.53-1.92.89-2.92.98-2.07.19-2.63 1.53-2.61 3.21.02 1.47-.89 2.4-1.54 3.52-1.78 3.07-4.17 5.88-4.04 9.76.02.47-.23.97-.44 1.41-.68 1.46-.3 2.61 1.17 3.38 1.98 1.04 3.84.85 4.55-.62.93-1.91 2-3.47 4.24-4.1 1.36-.38 1.96-1.79 2.22-3.1.41-2.1 1.77-3.66 2.75-5.43.25-.46.55-.17.89-.09.83.19 1.66.29 2.09-.75.32-.77 1.23-.56 1.82-1.01.93-.71.97.53 1.35.94.52.56.83 1.28 1.65 1.58.61.22.28.77.17 1.19-.78 2.92-2.51 5.43-3.58 8.21-1.22 3.17-1.7 6.56-2.31 9.91-.46 2.5-.11 4.86.67 7.25.28.86.16 1.81-1.34 1.77-3.55-.09-5.73 1.84-7.24 5.77-3.46 8.97-7.07 17.88-10.53 26.84-1.81 4.69-3.9 9.29-5.37 14.11-.7 2.31-.11 4.11 1.64 5.5 1.35 1.06 4.42 1.38 5.87.45 1.54-.98 1.94-2.76 2.59-4.31.84-1.98 1.49-4.04 2.24-6.06.06-.17.23-.46.29-.44.33.08.15.38.15.57-.03 1.57-.05 3.15.64 4.62.28.59-.47 1-.34 1.38.67 2.06-.25 4.58.48 6.12a21.75 21.75 0 011.9 7.26c.07.66.31 1.48.77 1.89 1.9 1.68 1.55 3.74 1.09 5.78-.56 2.5-1 4.99-.46 7.55.12.58-.16.68-.72.73-2.85.27-5.71.18-9.73.21zm-30.77-77.29c-4.88 0-9.76.03-14.64-.01-3.54-.03-5.53 2.04-5.54 5.5-.05 13.52-.03 27.03.01 40.55 0 1.25.23 2.51 1.06 3.61 1.62 2.15 4.07 2.04 6.24 2.04 9.5-.01 19.01.35 28.51-.17 2.83-.16 4.05-1.52 3.99-4.6-.04-2.06-1.71-3.47-4.11-3.47-7.96 0-15.92-.03-23.87.03-1.14.01-1.34-.33-1.32-1.38.06-4.08.06-8.16 0-12.24-.01-.97.27-1.16 1.19-1.17 7.18-.1 14.37.29 21.55-.2 2.59-.18 3.72-1.46 3.69-4.52-.02-1.93-1.59-3.32-3.75-3.32-7.2 0-14.4-.01-21.59.02-.79 0-1.1-.12-1.08-1.01.06-3.52.06-7.04 0-10.56-.01-.87.25-1.03 1.07-1.05 7.86-.11 15.73.28 23.59-.2 2.34-.14 3.93-1.63 3.92-3.94 0-2.25-1.65-3.9-3.91-3.9l-15.01-.01z"/><path d="M236.65 197.16c-1.92 0-3.84-.05-5.76.02-.81.03-.96-.29-.86-.96.28-1.96.64-3.87 1.95-5.49a3.71 3.71 0 00.92-2.81c-.52-4.07 1.3-7.59 2.63-11.22.04-.12.11-.24.16-.36.04.15.07.3.12.44l5.74 15.59c.48 1.3.93 2.61 1.45 3.89.28.69.24.94-.61.91-1.9-.05-3.82-.01-5.74-.01zM249.98 118.22a3.7 3.7 0 00-.06 2.26c.14.53-.23 1.34-.62 1.81-.9 1.08-1.19 2.5-2.16 3.56a3.6 3.6 0 00-.79 2.61c.07 1.5-.16 2.92-1.51 3.88l-.17.17c-.65.44-.51 2.14-1.71 1.47-1.15-.64-1.44-2.22-1.14-3.35.55-2.07 1.2-4.16 2.94-5.73.78-.7.94-1.95 1.15-3.05.14-.75-.08-2.02 1.5-1.51.34.11.92-.15 1.11-.67a4 4 0 011.31-1.63l.15.18z"/><path d="M249.82 118.01c.57-.59.57-1.39.76-2.12-.11.8 1.25 1.97-.6 2.33l-.16-.21zM131.85 39.81c-.37.08-.55.15-.7.13-.08-.01-.14-.21-.2-.32.14-.04.28-.13.42-.12.1.01.2.13.48.31zM133.08 41.49c-.18.1-.31.15-.43.23-.15.11-.29.15-.26-.09.01-.08.19-.18.31-.22.09-.02.21.04.38.08zM134.58 40.09c-.17.12-.25.21-.35.24-.04.01-.18-.11-.17-.13.03-.09.09-.19.17-.23.05-.02.16.06.35.12zM126.01 36.31a8.9 8.9 0 00-.32.21c-.09-.2-.06-.35.17-.42l.15.21zM164.55 285.72c-4.35-.01-7.01-2.91-7-7.62.01-4.81 2.82-7.98 7.05-7.96 4.27.02 7.1 3.29 7.11 8.22 0 4.49-2.79 7.37-7.16 7.36zM256.39 108.28c.12-.1.28-.17.25.1-.01.08-.21.2-.33.2-.16.01-.32-.08-.48-.12.19-.05.36-.11.56-.18z"/><path fill="#FEFEFE" d="M187.85 165.72h15a3.79 3.79 0 013.91 3.9c0 2.31-1.59 3.8-3.92 3.94-7.86.49-15.73.09-23.59.2-.81.01-1.08.18-1.07 1.05.05 3.52.06 7.04 0 10.56-.01.89.29 1.01 1.08 1.01 7.2-.03 14.4-.02 21.59-.02 2.16 0 3.73 1.4 3.75 3.32.03 3.06-1.09 4.34-3.69 4.52-7.18.49-14.37.1-21.55.2-.92.01-1.2.2-1.19 1.17.06 4.08.06 8.16 0 12.24-.02 1.05.18 1.39 1.32 1.38 7.96-.06 15.92-.03 23.87-.03 2.4 0 4.07 1.41 4.11 3.47.06 3.08-1.16 4.44-3.99 4.6-9.5.53-19.01.16-28.51.17-2.18 0-4.62.11-6.24-2.04a5.85 5.85 0 01-1.06-3.61c-.04-13.52-.05-27.03-.01-40.55.01-3.46 2-5.52 5.54-5.5 4.89.05 9.77.02 14.65.02z"/></svg>